<svg xmlns="http://www.w3.org/2000/svg" width="524" height="128" preserveAspectRatio="xMidYMid meet" xmlns="http://www.w3.org/2000/svg" viewBox="156 134 524 128" class="sf-canvas"><defs><marker id="sf-arrow-sequence" markerWidth="10" markerHeight="10" refX="8" refY="5" orient="auto" markerUnits="userSpaceOnUse"><path d="M1,1 L9,5 L1,9 Z" fill="context-stroke" stroke="context-stroke" stroke-width="1" stroke-linejoin="round"/></marker><marker id="sf-arrow-message" markerWidth="10" markerHeight="10" refX="8" refY="5" orient="auto" markerUnits="userSpaceOnUse"><path d="M1,1 L9,5 L1,9 Z" fill="none" stroke="context-stroke" stroke-width="1" stroke-linejoin="round"/></marker><marker id="sf-arrow-open" markerWidth="10" markerHeight="10" refX="8" refY="5" orient="auto" markerUnits="userSpaceOnUse"><path d="M1,1 L9,5 L1,9 Z" fill="none" stroke="context-stroke" stroke-width="1" stroke-linejoin="round"/></marker><marker id="sf-marker-default" markerWidth="10" markerHeight="10" refX="0" refY="5" orient="auto" markerUnits="userSpaceOnUse"><path d="M3,2 L7,8" fill="none" stroke="context-stroke" stroke-width="1.5"/></marker><marker id="sf-marker-message-start" markerWidth="10" markerHeight="10" refX="1.5" refY="5" orient="auto" markerUnits="userSpaceOnUse"><circle cx="5" cy="5" r="3" fill="#ffffff" stroke="context-stroke" stroke-width="1"/></marker></defs><g class="sf-layer sf-layer-elements" data-layer="elements"><g class="sf-connection" data-element-id="Flow_Start_Warmup" data-element-type="bpmn:SequenceFlow"><path class="sf-connection-line" d="M 196 198 L 260 198" data-waypoints="196,198 260,198" fill="none" stroke="#44403c" stroke-width="1.5" stroke-linejoin="round" stroke-linecap="round" marker-end="url(#sf-arrow-sequence)"/></g><g class="sf-connection" data-element-id="Flow_Warmup_Main" data-element-type="bpmn:SequenceFlow"><path class="sf-connection-line" d="M 380 198 L 450 198" data-waypoints="380,198 450,198" fill="none" stroke="#44403c" stroke-width="1.5" stroke-linejoin="round" stroke-linecap="round" marker-end="url(#sf-arrow-sequence)"/></g><g class="sf-connection" data-element-id="Flow_Main_End" data-element-type="bpmn:SequenceFlow"><path class="sf-connection-line" d="M 570 198 L 640 198" data-waypoints="570,198 640,198" fill="none" stroke="#44403c" stroke-width="1.5" stroke-linejoin="round" stroke-linecap="round" marker-end="url(#sf-arrow-sequence)"/></g><g class="sf-shape" data-element-id="Start" data-element-type="bpmn:StartEvent" transform="translate(160, 180)"><circle cx="18" cy="18" r="18" fill="#ffffff" stroke="#44403c" stroke-width="1.5"/></g><g class="sf-shape" data-element-id="Warmup_1Back" data-element-type="bpmn:ChoreographyTask" transform="translate(260, 138)"><rect x="0" y="0" rx="12" ry="12" width="120" height="120" fill="#ffffff" stroke="none"/><path d="M0,20 L0,12 Q0,0 12,0 L108,0 Q120,0 120,12 L120,20 Z" fill="#ffffff" stroke="none" data-band="top"/><path d="M0,100 L120,100 L120,108 Q120,120 108,120 L12,120 Q0,120 0,108 Z" fill="#f5f5f4" stroke="none" data-band="bottom"/><line x1="0" y1="20" x2="120" y2="20" stroke="#44403c" stroke-width="1"/><line x1="0" y1="100" x2="120" y2="100" stroke="#44403c" stroke-width="1"/><rect x="0" y="0" rx="12" ry="12" width="120" height="120" fill="none" stroke="#44403c" stroke-width="1.5"/><text class="sf-label" x="60" y="10" fill="#1c1917" font-size="11" font-weight="400" font-family="&quot;IBM Plex Sans&quot;, Helvetica, sans-serif" text-anchor="middle" dominant-baseline="middle" stroke-width="0">Behaverse · NB</text><text class="sf-label" x="60" y="110" fill="#1c1917" font-size="11" font-weight="400" font-family="&quot;IBM Plex Sans&quot;, Helvetica, sans-serif" text-anchor="middle" dominant-baseline="middle" stroke-width="0">External bridge</text><g transform="translate(0, 20)"><text class="sf-label" x="60" y="43.5" fill="#1c1917" font-size="12" font-weight="500" font-family="&quot;IBM Plex Sans&quot;, Helvetica, sans-serif" text-anchor="middle" dominant-baseline="middle" stroke-width="0">1-Back warm-up</text></g><g transform="translate(0, 20)"><g class="sf-icon-placeholder" data-icon-key="ChoreographyTask"><rect x="3" y="3" width="24" height="24" rx="3" ry="3" fill="none" stroke="#78716c" stroke-width="1" opacity="0.4"/><text x="15" y="15" text-anchor="middle" dominant-baseline="central" font-family="ui-monospace, SFMono-Regular, Menlo, monospace" font-size="14.399999999999999" fill="#78716c" stroke-width="0">C</text></g><text class="sf-icon-text" x="15" y="15" text-anchor="middle" dominant-baseline="central" font-family="ui-monospace, SFMono-Regular, Menlo, monospace" font-size="13.200000000000001" font-weight="bold" fill="#44403c" stroke-width="0">NB</text></g></g><g class="sf-shape" data-element-id="Main_2Back" data-element-type="bpmn:ChoreographyTask" transform="translate(450, 138)"><rect x="0" y="0" rx="12" ry="12" width="120" height="120" fill="#ffffff" stroke="none"/><path d="M0,20 L0,12 Q0,0 12,0 L108,0 Q120,0 120,12 L120,20 Z" fill="#ffffff" stroke="none" data-band="top"/><path d="M0,100 L120,100 L120,108 Q120,120 108,120 L12,120 Q0,120 0,108 Z" fill="#f5f5f4" stroke="none" data-band="bottom"/><line x1="0" y1="20" x2="120" y2="20" stroke="#44403c" stroke-width="1"/><line x1="0" y1="100" x2="120" y2="100" stroke="#44403c" stroke-width="1"/><rect x="0" y="0" rx="12" ry="12" width="120" height="120" fill="none" stroke="#44403c" stroke-width="1.5"/><text class="sf-label" x="60" y="10" fill="#1c1917" font-size="11" font-weight="400" font-family="&quot;IBM Plex Sans&quot;, Helvetica, sans-serif" text-anchor="middle" dominant-baseline="middle" stroke-width="0">Behaverse · NB</text><text class="sf-label" x="60" y="110" fill="#1c1917" font-size="11" font-weight="400" font-family="&quot;IBM Plex Sans&quot;, Helvetica, sans-serif" text-anchor="middle" dominant-baseline="middle" stroke-width="0">External bridge</text><g transform="translate(0, 20)"><text class="sf-label" x="60" y="43.5" fill="#1c1917" font-size="12" font-weight="500" font-family="&quot;IBM Plex Sans&quot;, Helvetica, sans-serif" text-anchor="middle" dominant-baseline="middle" stroke-width="0">2-Back main</text></g><g transform="translate(0, 20)"><g class="sf-icon-placeholder" data-icon-key="ChoreographyTask"><rect x="3" y="3" width="24" height="24" rx="3" ry="3" fill="none" stroke="#78716c" stroke-width="1" opacity="0.4"/><text x="15" y="15" text-anchor="middle" dominant-baseline="central" font-family="ui-monospace, SFMono-Regular, Menlo, monospace" font-size="14.399999999999999" fill="#78716c" stroke-width="0">C</text></g><text class="sf-icon-text" x="15" y="15" text-anchor="middle" dominant-baseline="central" font-family="ui-monospace, SFMono-Regular, Menlo, monospace" font-size="13.200000000000001" font-weight="bold" fill="#44403c" stroke-width="0">NB</text></g></g><g class="sf-shape" data-element-id="End" data-element-type="bpmn:EndEvent" transform="translate(640, 180)"><circle cx="18" cy="18" r="16.875" fill="#ffffff" stroke="#44403c" stroke-width="3.75"/></g><g class="sf-external-label" data-element-id="Start_label" data-element-type="bpmn:StartEvent" data-label-owner="Start" transform="translate(166, 223)"><text class="sf-label" x="12" y="7.5" fill="#78716c" font-size="11" font-weight="400" font-family="&quot;IBM Plex Sans&quot;, Helvetica, sans-serif" text-anchor="middle" dominant-baseline="middle" stroke-width="0">St…</text></g><g class="sf-external-label" data-element-id="End_label" data-element-type="bpmn:EndEvent" data-label-owner="End" transform="translate(647, 223)"><text class="sf-label" x="11" y="7.5" fill="#78716c" font-size="11" font-weight="400" font-family="&quot;IBM Plex Sans&quot;, Helvetica, sans-serif" text-anchor="middle" dominant-baseline="middle" stroke-width="0">Do…</text></g></g><g class="sf-layer sf-layer-overlays" data-layer="overlays"/></svg>