<svg xmlns="http://www.w3.org/2000/svg" class="sf-canvas" width="100%" height="100%" preserveAspectRatio="xMidYMid meet" xmlns="http://www.w3.org/2000/svg" viewBox="-327 20 2074 2074"><defs><marker id="sf-arrow-sequence" markerWidth="12" markerHeight="12" refX="9" refY="5" orient="auto" markerUnits="userSpaceOnUse"><path d="M1,1 L10,5 L1,9 Z" fill="context-stroke" stroke="context-stroke" stroke-width="1"/></marker><marker id="sf-arrow-message" markerWidth="12" markerHeight="12" refX="9" refY="5" orient="auto" markerUnits="userSpaceOnUse"><path d="M1,1 L10,5 L1,9 Z" fill="none" stroke="context-stroke" stroke-width="1"/></marker><marker id="sf-arrow-open" markerWidth="12" markerHeight="12" refX="9" refY="5" orient="auto" markerUnits="userSpaceOnUse"><path d="M1,1 L10,5 L1,9 Z" fill="none" stroke="context-stroke" stroke-width="1"/></marker></defs><g class="sf-layer sf-layer-connections" data-layer="connections"/><g class="sf-layer sf-layer-shapes" data-layer="shapes"><g class="sf-shape" data-element-id="Ev_Start" data-element-type="bpmn:StartEvent" transform="translate(167, 121)"><circle cx="18" cy="18" r="17" fill="#ffffff" stroke="#22242A" stroke-width="2"/><text x="18" y="49.5" fill="#22242A" font-size="11" font-weight="400" font-family="system-ui, -apple-system, Segoe UI, Roboto, sans-serif" text-anchor="middle" dominant-baseline="middle" stroke-width="0">Start</text></g><g class="sf-shape" data-element-id="Ev_End" data-element-type="bpmn:EndEvent" transform="translate(347, 121)"><circle cx="18" cy="18" r="17" fill="#ffffff" stroke="#22242A" stroke-width="4"/><text x="18" y="49.5" fill="#22242A" font-size="11" font-weight="400" font-family="system-ui, -apple-system, Segoe UI, Roboto, sans-serif" text-anchor="middle" dominant-baseline="middle" stroke-width="0">End</text></g><g class="sf-shape" data-element-id="Ev_Throw" data-element-type="bpmn:IntermediateThrowEvent" transform="translate(527, 121)"><circle cx="18" cy="18" r="17" fill="#ffffff" stroke="#22242A" stroke-width="2"/><circle cx="18" cy="18" r="14" fill="none" stroke="#22242A" stroke-width="1.5"/><text x="18" y="42" fill="#22242A" font-size="11" font-weight="400" font-family="system-ui, -apple-system, Segoe UI, Roboto, sans-serif" text-anchor="middle" dominant-baseline="middle" stroke-width="0">Intermediate</text><text x="18" y="57" fill="#22242A" font-size="11" font-weight="400" font-family="system-ui, -apple-system, Segoe UI, Roboto, sans-serif" text-anchor="middle" dominant-baseline="middle" stroke-width="0">throw</text></g><g class="sf-shape" data-element-id="Ev_Catch" data-element-type="bpmn:IntermediateCatchEvent" transform="translate(707, 121)"><circle cx="18" cy="18" r="17" fill="#ffffff" stroke="#22242A" stroke-width="2"/><circle cx="18" cy="18" r="14" fill="none" stroke="#22242A" stroke-width="1.5"/><text x="18" y="42" fill="#22242A" font-size="11" font-weight="400" font-family="system-ui, -apple-system, Segoe UI, Roboto, sans-serif" text-anchor="middle" dominant-baseline="middle" stroke-width="0">Intermediate</text><text x="18" y="57" fill="#22242A" font-size="11" font-weight="400" font-family="system-ui, -apple-system, Segoe UI, Roboto, sans-serif" text-anchor="middle" dominant-baseline="middle" stroke-width="0">catch</text></g><g class="sf-shape" data-element-id="Gw_Exclusive" data-element-type="bpmn:ExclusiveGateway" transform="translate(160, 294)"><polygon points="25,0 50,25 25,50 0,25" fill="#ffffff" stroke="#22242A" stroke-width="2" stroke-linecap="round" stroke-linejoin="round"/><text x="25" y="25" text-anchor="middle" dominant-baseline="central" font-size="20" fill="#22242A" stroke-width="0">×</text><text x="25" y="63.5" fill="#22242A" font-size="11" font-weight="400" font-family="system-ui, -apple-system, Segoe UI, Roboto, sans-serif" text-anchor="middle" dominant-baseline="middle" stroke-width="0">Exclusive</text></g><g class="sf-shape" data-element-id="Gw_Parallel" data-element-type="bpmn:ParallelGateway" transform="translate(340, 294)"><polygon points="25,0 50,25 25,50 0,25" fill="#ffffff" stroke="#22242A" stroke-width="2" stroke-linecap="round" stroke-linejoin="round"/><text x="25" y="25" text-anchor="middle" dominant-baseline="central" font-size="20" fill="#22242A" stroke-width="0">+</text><text x="25" y="63.5" fill="#22242A" font-size="11" font-weight="400" font-family="system-ui, -apple-system, Segoe UI, Roboto, sans-serif" text-anchor="middle" dominant-baseline="middle" stroke-width="0">Parallel</text></g><g class="sf-shape" data-element-id="Gw_Inclusive" data-element-type="bpmn:InclusiveGateway" transform="translate(520, 294)"><polygon points="25,0 50,25 25,50 0,25" fill="#ffffff" stroke="#22242A" stroke-width="2" stroke-linecap="round" stroke-linejoin="round"/><text x="25" y="25" text-anchor="middle" dominant-baseline="central" font-size="20" fill="#22242A" stroke-width="0">○</text><text x="25" y="63.5" fill="#22242A" font-size="11" font-weight="400" font-family="system-ui, -apple-system, Segoe UI, Roboto, sans-serif" text-anchor="middle" dominant-baseline="middle" stroke-width="0">Inclusive</text></g><g class="sf-shape" data-element-id="Gw_EventBased" data-element-type="bpmn:EventBasedGateway" transform="translate(700, 294)"><polygon points="25,0 50,25 25,50 0,25" fill="#ffffff" stroke="#22242A" stroke-width="2" stroke-linecap="round" stroke-linejoin="round"/><text x="25" y="25" text-anchor="middle" dominant-baseline="central" font-size="20" fill="#22242A" stroke-width="0">⬠</text><text x="25" y="63.5" fill="#22242A" font-size="11" font-weight="400" font-family="system-ui, -apple-system, Segoe UI, Roboto, sans-serif" text-anchor="middle" dominant-baseline="middle" stroke-width="0">Event-based</text></g><g class="sf-shape" data-element-id="Gw_Complex" data-element-type="bpmn:ComplexGateway" transform="translate(880, 294)"><polygon points="25,0 50,25 25,50 0,25" fill="#ffffff" stroke="#22242A" stroke-width="2" stroke-linecap="round" stroke-linejoin="round"/><text x="25" y="25" text-anchor="middle" dominant-baseline="central" font-size="20" fill="#22242A" stroke-width="0">✳</text><text x="25" y="63.5" fill="#22242A" font-size="11" font-weight="400" font-family="system-ui, -apple-system, Segoe UI, Roboto, sans-serif" text-anchor="middle" dominant-baseline="middle" stroke-width="0">Complex</text></g><g class="sf-shape" data-element-id="Act_Task" data-element-type="bpmn:Task" transform="translate(125, 459)"><rect x="0" y="0" width="120" height="80" rx="10" ry="10" fill="#ffffff" stroke="#22242A" stroke-width="2"/><text x="60" y="40" fill="#22242A" font-size="12" font-weight="600" font-family="system-ui, -apple-system, Segoe UI, Roboto, sans-serif" text-anchor="middle" dominant-baseline="middle" stroke-width="0">Task</text></g><g class="sf-shape" data-element-id="Act_UserTask" data-element-type="bpmn:UserTask" transform="translate(305, 459)"><rect x="0" y="0" width="120" height="80" rx="10" ry="10" fill="#ffffff" stroke="#22242A" stroke-width="2"/><g class="sf-icon-placeholder" data-icon-key="UserTask"><rect x="5" y="5" width="22" height="22" rx="3" ry="3" fill="none" stroke="#22242A" stroke-width="1" opacity="0.4"/><text x="16" y="16" text-anchor="middle" dominant-baseline="central" font-family="ui-monospace, SFMono-Regular, Menlo, monospace" font-size="13.2" fill="#22242A" stroke-width="0">U</text></g><text x="60" y="40" fill="#22242A" font-size="12" font-weight="600" font-family="system-ui, -apple-system, Segoe UI, Roboto, sans-serif" text-anchor="middle" dominant-baseline="middle" stroke-width="0">User task</text></g><g class="sf-shape" data-element-id="Act_ServiceTask" data-element-type="bpmn:ServiceTask" transform="translate(485, 459)"><rect x="0" y="0" width="120" height="80" rx="10" ry="10" fill="#ffffff" stroke="#22242A" stroke-width="2"/><g class="sf-icon-placeholder" data-icon-key="ServiceTask"><rect x="5" y="5" width="22" height="22" rx="3" ry="3" fill="none" stroke="#22242A" stroke-width="1" opacity="0.4"/><text x="16" y="16" text-anchor="middle" dominant-baseline="central" font-family="ui-monospace, SFMono-Regular, Menlo, monospace" font-size="13.2" fill="#22242A" stroke-width="0">S</text></g><text x="60" y="40" fill="#22242A" font-size="12" font-weight="600" font-family="system-ui, -apple-system, Segoe UI, Roboto, sans-serif" text-anchor="middle" dominant-baseline="middle" stroke-width="0">Service task</text></g><g class="sf-shape" data-element-id="Act_ScriptTask" data-element-type="bpmn:ScriptTask" transform="translate(665, 459)"><rect x="0" y="0" width="120" height="80" rx="10" ry="10" fill="#ffffff" stroke="#22242A" stroke-width="2"/><g class="sf-icon-placeholder" data-icon-key="ScriptTask"><rect x="5" y="5" width="22" height="22" rx="3" ry="3" fill="none" stroke="#22242A" stroke-width="1" opacity="0.4"/><text x="16" y="16" text-anchor="middle" dominant-baseline="central" font-family="ui-monospace, SFMono-Regular, Menlo, monospace" font-size="13.2" fill="#22242A" stroke-width="0">S</text></g><text x="60" y="40" fill="#22242A" font-size="12" font-weight="600" font-family="system-ui, -apple-system, Segoe UI, Roboto, sans-serif" text-anchor="middle" dominant-baseline="middle" stroke-width="0">Script task</text></g><g class="sf-shape" data-element-id="Act_ManualTask" data-element-type="bpmn:ManualTask" transform="translate(845, 459)"><rect x="0" y="0" width="120" height="80" rx="10" ry="10" fill="#ffffff" stroke="#22242A" stroke-width="2"/><g class="sf-icon-placeholder" data-icon-key="ManualTask"><rect x="5" y="5" width="22" height="22" rx="3" ry="3" fill="none" stroke="#22242A" stroke-width="1" opacity="0.4"/><text x="16" y="16" text-anchor="middle" dominant-baseline="central" font-family="ui-monospace, SFMono-Regular, Menlo, monospace" font-size="13.2" fill="#22242A" stroke-width="0">M</text></g><text x="60" y="40" fill="#22242A" font-size="12" font-weight="600" font-family="system-ui, -apple-system, Segoe UI, Roboto, sans-serif" text-anchor="middle" dominant-baseline="middle" stroke-width="0">Manual task</text></g><g class="sf-shape" data-element-id="Act_SendTask" data-element-type="bpmn:SendTask" transform="translate(1025, 459)"><rect x="0" y="0" width="120" height="80" rx="10" ry="10" fill="#ffffff" stroke="#22242A" stroke-width="2"/><g class="sf-icon-placeholder" data-icon-key="SendTask"><rect x="5" y="5" width="22" height="22" rx="3" ry="3" fill="none" stroke="#22242A" stroke-width="1" opacity="0.4"/><text x="16" y="16" text-anchor="middle" dominant-baseline="central" font-family="ui-monospace, SFMono-Regular, Menlo, monospace" font-size="13.2" fill="#22242A" stroke-width="0">S</text></g><text x="60" y="40" fill="#22242A" font-size="12" font-weight="600" font-family="system-ui, -apple-system, Segoe UI, Roboto, sans-serif" text-anchor="middle" dominant-baseline="middle" stroke-width="0">Send task</text></g><g class="sf-shape" data-element-id="Act_ReceiveTask" data-element-type="bpmn:ReceiveTask" transform="translate(1205, 459)"><rect x="0" y="0" width="120" height="80" rx="10" ry="10" fill="#ffffff" stroke="#22242A" stroke-width="2"/><g class="sf-icon-placeholder" data-icon-key="ReceiveTask"><rect x="5" y="5" width="22" height="22" rx="3" ry="3" fill="none" stroke="#22242A" stroke-width="1" opacity="0.4"/><text x="16" y="16" text-anchor="middle" dominant-baseline="central" font-family="ui-monospace, SFMono-Regular, Menlo, monospace" font-size="13.2" fill="#22242A" stroke-width="0">R</text></g><text x="60" y="40" fill="#22242A" font-size="12" font-weight="600" font-family="system-ui, -apple-system, Segoe UI, Roboto, sans-serif" text-anchor="middle" dominant-baseline="middle" stroke-width="0">Receive task</text></g><g class="sf-shape" data-element-id="Act_BusinessRuleTask" data-element-type="bpmn:BusinessRuleTask" transform="translate(125, 569)"><rect x="0" y="0" width="120" height="80" rx="10" ry="10" fill="#ffffff" stroke="#22242A" stroke-width="2"/><g class="sf-icon-placeholder" data-icon-key="BusinessRuleTask"><rect x="5" y="5" width="22" height="22" rx="3" ry="3" fill="none" stroke="#22242A" stroke-width="1" opacity="0.4"/><text x="16" y="16" text-anchor="middle" dominant-baseline="central" font-family="ui-monospace, SFMono-Regular, Menlo, monospace" font-size="13.2" fill="#22242A" stroke-width="0">B</text></g><text x="60" y="32.5" fill="#22242A" font-size="12" font-weight="600" font-family="system-ui, -apple-system, Segoe UI, Roboto, sans-serif" text-anchor="middle" dominant-baseline="middle" stroke-width="0">Business rule</text><text x="60" y="47.5" fill="#22242A" font-size="12" font-weight="600" font-family="system-ui, -apple-system, Segoe UI, Roboto, sans-serif" text-anchor="middle" dominant-baseline="middle" stroke-width="0">task</text></g><g class="sf-shape" data-element-id="Act_CallActivity" data-element-type="bpmn:CallActivity" transform="translate(305, 569)"><rect x="0" y="0" width="120" height="80" rx="10" ry="10" fill="#ffffff" stroke="#22242A" stroke-width="4"/><g class="sf-icon-placeholder" data-icon-key="CallActivity"><rect x="5" y="5" width="22" height="22" rx="3" ry="3" fill="none" stroke="#22242A" stroke-width="1" opacity="0.4"/><text x="16" y="16" text-anchor="middle" dominant-baseline="central" font-family="ui-monospace, SFMono-Regular, Menlo, monospace" font-size="13.2" fill="#22242A" stroke-width="0">C</text></g><text x="60" y="40" fill="#22242A" font-size="12" font-weight="600" font-family="system-ui, -apple-system, Segoe UI, Roboto, sans-serif" text-anchor="middle" dominant-baseline="middle" stroke-width="0">Call activity</text></g><g class="sf-shape" data-element-id="Act_SubProcess" data-element-type="bpmn:SubProcess" transform="translate(485, 569)"><rect x="0" y="0" width="120" height="80" rx="10" ry="10" fill="#ffffff" stroke="#22242A" stroke-width="2"/><g class="sf-icon-placeholder" data-icon-key="SubProcess"><rect x="5" y="5" width="22" height="22" rx="3" ry="3" fill="none" stroke="#22242A" stroke-width="1" opacity="0.4"/><text x="16" y="16" text-anchor="middle" dominant-baseline="central" font-family="ui-monospace, SFMono-Regular, Menlo, monospace" font-size="13.2" fill="#22242A" stroke-width="0">S</text></g><g class="sf-icon-placeholder" data-icon-key="⊞"><rect x="52" y="60" width="16" height="16" rx="3" ry="3" fill="none" stroke="#22242A" stroke-width="1" opacity="0.4"/><text x="60" y="68" text-anchor="middle" dominant-baseline="central" font-family="ui-monospace, SFMono-Regular, Menlo, monospace" font-size="9.6" fill="#22242A" stroke-width="0">?</text></g><text x="60" y="40" fill="#22242A" font-size="12" font-weight="600" font-family="system-ui, -apple-system, Segoe UI, Roboto, sans-serif" text-anchor="middle" dominant-baseline="middle" stroke-width="0">Sub-process</text></g><g class="sf-shape" data-element-id="Act_Transaction" data-element-type="bpmn:Transaction" transform="translate(665, 569)"><rect x="0" y="0" width="120" height="80" rx="10" ry="10" fill="#ffffff" stroke="#22242A" stroke-width="4"/><g class="sf-icon-placeholder" data-icon-key="Transaction"><rect x="5" y="5" width="22" height="22" rx="3" ry="3" fill="none" stroke="#22242A" stroke-width="1" opacity="0.4"/><text x="16" y="16" text-anchor="middle" dominant-baseline="central" font-family="ui-monospace, SFMono-Regular, Menlo, monospace" font-size="13.2" fill="#22242A" stroke-width="0">T</text></g><text x="60" y="40" fill="#22242A" font-size="12" font-weight="600" font-family="system-ui, -apple-system, Segoe UI, Roboto, sans-serif" text-anchor="middle" dominant-baseline="middle" stroke-width="0">Transaction</text></g><g class="sf-shape" data-element-id="Act_AdHoc" data-element-type="bpmn:AdHocSubProcess" transform="translate(845, 569)"><rect x="0" y="0" width="120" height="80" rx="10" ry="10" fill="#ffffff" stroke="#22242A" stroke-width="2"/><g class="sf-icon-placeholder" data-icon-key="AdHocSubProcess"><rect x="5" y="5" width="22" height="22" rx="3" ry="3" fill="none" stroke="#22242A" stroke-width="1" opacity="0.4"/><text x="16" y="16" text-anchor="middle" dominant-baseline="central" font-family="ui-monospace, SFMono-Regular, Menlo, monospace" font-size="13.2" fill="#22242A" stroke-width="0">A</text></g><g class="sf-icon-placeholder" data-icon-key="~"><rect x="52" y="60" width="16" height="16" rx="3" ry="3" fill="none" stroke="#22242A" stroke-width="1" opacity="0.4"/><text x="60" y="68" text-anchor="middle" dominant-baseline="central" font-family="ui-monospace, SFMono-Regular, Menlo, monospace" font-size="9.6" fill="#22242A" stroke-width="0">?</text></g><text x="60" y="32.5" fill="#22242A" font-size="12" font-weight="600" font-family="system-ui, -apple-system, Segoe UI, Roboto, sans-serif" text-anchor="middle" dominant-baseline="middle" stroke-width="0">Ad-hoc</text><text x="60" y="47.5" fill="#22242A" font-size="12" font-weight="600" font-family="system-ui, -apple-system, Segoe UI, Roboto, sans-serif" text-anchor="middle" dominant-baseline="middle" stroke-width="0">sub-process</text></g><g class="sf-shape" data-element-id="Bd_DataObject" data-element-type="bpmn:DataObjectReference" transform="translate(160, 764)"><path d="M0,0 L34,0 L50,16 L50,50 L0,50 Z" fill="#ffffff" stroke="#22242A" stroke-width="2" stroke-linejoin="round"/><path d="M34,0 L34,16 L50,16" fill="none" stroke="#22242A" stroke-width="2" stroke-linejoin="round"/><text x="25" y="63.5" fill="#22242A" font-size="11" font-weight="400" font-family="system-ui, -apple-system, Segoe UI, Roboto, sans-serif" text-anchor="middle" dominant-baseline="middle" stroke-width="0">Data object</text></g><g class="sf-shape" data-element-id="Bd_DataStore" data-element-type="bpmn:DataStoreReference" transform="translate(340, 764)"><path d="M0,6 A25,6 0 0 0 50,6 L50,44 A25,6 0 0 1 0,44 Z" fill="#ffffff" stroke="#22242A" stroke-width="2" stroke-linejoin="round"/><path d="M0,6 A25,6 0 0 0 50,6 A25,6 0 0 0 0,6 Z" fill="none" stroke="#22242A" stroke-width="2"/><text x="25" y="63.5" fill="#22242A" font-size="11" font-weight="400" font-family="system-ui, -apple-system, Segoe UI, Roboto, sans-serif" text-anchor="middle" dominant-baseline="middle" stroke-width="0">Data store</text></g><g class="sf-shape" data-element-id="Sf_Dataset" data-element-type="bpmn:DataStoreReference" transform="translate(160, 944)"><path d="M0,6 A25,6 0 0 0 50,6 L50,44 A25,6 0 0 1 0,44 Z" fill="#ffffff" stroke="#22242A" stroke-width="2" stroke-linejoin="round"/><path d="M0,6 A25,6 0 0 0 50,6 A25,6 0 0 0 0,6 Z" fill="none" stroke="#22242A" stroke-width="2"/><text x="25" y="63.5" fill="#22242A" font-size="11" font-weight="400" font-family="system-ui, -apple-system, Segoe UI, Roboto, sans-serif" text-anchor="middle" dominant-baseline="middle" stroke-width="0">Dataset</text></g><g class="sf-shape" data-element-id="Sf_Schema" data-element-type="bpmn:DataObjectReference" transform="translate(340, 944)"><path d="M0,0 L34,0 L50,16 L50,50 L0,50 Z" fill="#ffffff" stroke="#22242A" stroke-width="2" stroke-linejoin="round"/><path d="M34,0 L34,16 L50,16" fill="none" stroke="#22242A" stroke-width="2" stroke-linejoin="round"/><text x="25" y="63.5" fill="#22242A" font-size="11" font-weight="400" font-family="system-ui, -apple-system, Segoe UI, Roboto, sans-serif" text-anchor="middle" dominant-baseline="middle" stroke-width="0">Schema</text></g><g class="sf-shape" data-element-id="Sf_Table" data-element-type="bpmn:DataObjectReference" transform="translate(520, 944)"><path d="M0,0 L34,0 L50,16 L50,50 L0,50 Z" fill="#ffffff" stroke="#22242A" stroke-width="2" stroke-linejoin="round"/><path d="M34,0 L34,16 L50,16" fill="none" stroke="#22242A" stroke-width="2" stroke-linejoin="round"/><text x="25" y="63.5" fill="#22242A" font-size="11" font-weight="400" font-family="system-ui, -apple-system, Segoe UI, Roboto, sans-serif" text-anchor="middle" dominant-baseline="middle" stroke-width="0">Table</text></g><g class="sf-shape" data-element-id="Sf_Timeseries" data-element-type="bpmn:DataObjectReference" transform="translate(700, 944)"><path d="M0,0 L34,0 L50,16 L50,50 L0,50 Z" fill="#ffffff" stroke="#22242A" stroke-width="2" stroke-linejoin="round"/><path d="M34,0 L34,16 L50,16" fill="none" stroke="#22242A" stroke-width="2" stroke-linejoin="round"/><text x="25" y="63.5" fill="#22242A" font-size="11" font-weight="400" font-family="system-ui, -apple-system, Segoe UI, Roboto, sans-serif" text-anchor="middle" dominant-baseline="middle" stroke-width="0">Timeseries</text></g><g class="sf-shape" data-element-id="Sf_EventMarker" data-element-type="bpmn:DataObjectReference" transform="translate(880, 944)"><path d="M0,0 L34,0 L50,16 L50,50 L0,50 Z" fill="#ffffff" stroke="#22242A" stroke-width="2" stroke-linejoin="round"/><path d="M34,0 L34,16 L50,16" fill="none" stroke="#22242A" stroke-width="2" stroke-linejoin="round"/><text x="25" y="63.5" fill="#22242A" font-size="11" font-weight="400" font-family="system-ui, -apple-system, Segoe UI, Roboto, sans-serif" text-anchor="middle" dominant-baseline="middle" stroke-width="0">Event marker</text></g><g class="sf-shape" data-element-id="Ex_Parameters" data-element-type="bpmn:DataObjectReference" transform="translate(160, 1124)"><path d="M0,0 L34,0 L50,16 L50,50 L0,50 Z" fill="#ffffff" stroke="#22242A" stroke-width="2" stroke-linejoin="round"/><path d="M34,0 L34,16 L50,16" fill="none" stroke="#22242A" stroke-width="2" stroke-linejoin="round"/><text x="25" y="63.5" fill="#22242A" font-size="11" font-weight="400" font-family="system-ui, -apple-system, Segoe UI, Roboto, sans-serif" text-anchor="middle" dominant-baseline="middle" stroke-width="0">Parameters</text></g><g class="sf-shape" data-element-id="Fn_ForEach" data-element-type="bpmn:SubProcess" transform="translate(845, 1939)"><rect x="0" y="0" width="120" height="80" rx="10" ry="10" fill="#ffffff" stroke="#22242A" stroke-width="2"/><g class="sf-icon-placeholder" data-icon-key="SubProcess"><rect x="5" y="5" width="22" height="22" rx="3" ry="3" fill="none" stroke="#22242A" stroke-width="1" opacity="0.4"/><text x="16" y="16" text-anchor="middle" dominant-baseline="central" font-family="ui-monospace, SFMono-Regular, Menlo, monospace" font-size="13.2" fill="#22242A" stroke-width="0">S</text></g><g class="sf-icon-placeholder" data-icon-key="⊞"><rect x="52" y="60" width="16" height="16" rx="3" ry="3" fill="none" stroke="#22242A" stroke-width="1" opacity="0.4"/><text x="60" y="68" text-anchor="middle" dominant-baseline="central" font-family="ui-monospace, SFMono-Regular, Menlo, monospace" font-size="9.6" fill="#22242A" stroke-width="0">?</text></g><text x="60" y="32.5" fill="#22242A" font-size="12" font-weight="600" font-family="system-ui, -apple-system, Segoe UI, Roboto, sans-serif" text-anchor="middle" dominant-baseline="middle" stroke-width="0">For-each</text><text x="60" y="47.5" fill="#22242A" font-size="12" font-weight="600" font-family="system-ui, -apple-system, Segoe UI, Roboto, sans-serif" text-anchor="middle" dominant-baseline="middle" stroke-width="0">(fan-out)</text></g><g class="sf-shape" data-element-id="Fn_Retry" data-element-type="bpmn:Task" transform="translate(1000, 1939)"><rect x="0" y="0" width="120" height="80" rx="10" ry="10" fill="#ffffff" stroke="#22242A" stroke-width="2"/><text x="60" y="32.5" fill="#22242A" font-size="12" font-weight="600" font-family="system-ui, -apple-system, Segoe UI, Roboto, sans-serif" text-anchor="middle" dominant-baseline="middle" stroke-width="0">Retry-until-good</text><text x="60" y="47.5" fill="#22242A" font-size="12" font-weight="600" font-family="system-ui, -apple-system, Segoe UI, Roboto, sans-serif" text-anchor="middle" dominant-baseline="middle" stroke-width="0">(loop)</text></g><g class="sf-shape" data-element-id="Cg_CognitiveTask" data-element-type="bpmn:Task" transform="translate(125, 1289)"><rect x="0" y="0" width="120" height="80" rx="10" ry="10" fill="#ffffff" stroke="#22242A" stroke-width="2"/><text x="60" y="40" fill="#22242A" font-size="12" font-weight="600" font-family="system-ui, -apple-system, Segoe UI, Roboto, sans-serif" text-anchor="middle" dominant-baseline="middle" stroke-width="0">Cognitive task</text></g><g class="sf-shape" data-element-id="Cg_Rest" data-element-type="bpmn:Task" transform="translate(305, 1289)"><rect x="0" y="0" width="120" height="80" rx="10" ry="10" fill="#ffffff" stroke="#22242A" stroke-width="2"/><text x="60" y="40" fill="#22242A" font-size="12" font-weight="600" font-family="system-ui, -apple-system, Segoe UI, Roboto, sans-serif" text-anchor="middle" dominant-baseline="middle" stroke-width="0">Rest</text></g><g class="sf-shape" data-element-id="Cg_Questionnaire" data-element-type="bpmn:Task" transform="translate(485, 1289)"><rect x="0" y="0" width="120" height="80" rx="10" ry="10" fill="#ffffff" stroke="#22242A" stroke-width="2"/><text x="60" y="40" fill="#22242A" font-size="12" font-weight="600" font-family="system-ui, -apple-system, Segoe UI, Roboto, sans-serif" text-anchor="middle" dominant-baseline="middle" stroke-width="0">Questionnaire</text></g><g class="sf-shape" data-element-id="Cg_Instruction" data-element-type="bpmn:Task" transform="translate(665, 1289)"><rect x="0" y="0" width="120" height="80" rx="10" ry="10" fill="#ffffff" stroke="#22242A" stroke-width="2"/><text x="60" y="40" fill="#22242A" font-size="12" font-weight="600" font-family="system-ui, -apple-system, Segoe UI, Roboto, sans-serif" text-anchor="middle" dominant-baseline="middle" stroke-width="0">Instruction</text></g><g class="sf-shape" data-element-id="Cg_Behaverse" data-element-type="bpmn:Task" transform="translate(845, 1289)"><rect x="0" y="0" width="120" height="80" rx="10" ry="10" fill="#ffffff" stroke="#22242A" stroke-width="2"/><text x="60" y="40" fill="#22242A" font-size="12" font-weight="600" font-family="system-ui, -apple-system, Segoe UI, Roboto, sans-serif" text-anchor="middle" dominant-baseline="middle" stroke-width="0">Behaverse task</text></g><g class="sf-shape" data-element-id="Cg_Random" data-element-type="bpmn:ExclusiveGateway" transform="translate(160, 1414)"><polygon points="25,0 50,25 25,50 0,25" fill="#ffffff" stroke="#22242A" stroke-width="2" stroke-linecap="round" stroke-linejoin="round"/><text x="25" y="25" text-anchor="middle" dominant-baseline="central" font-size="20" fill="#22242A" stroke-width="0">×</text><text x="25" y="63.5" fill="#22242A" font-size="11" font-weight="400" font-family="system-ui, -apple-system, Segoe UI, Roboto, sans-serif" text-anchor="middle" dominant-baseline="middle" stroke-width="0">Random gateway</text></g><g class="sf-shape" data-element-id="Cg_Stratified" data-element-type="bpmn:ExclusiveGateway" transform="translate(340, 1414)"><polygon points="25,0 50,25 25,50 0,25" fill="#ffffff" stroke="#22242A" stroke-width="2" stroke-linecap="round" stroke-linejoin="round"/><text x="25" y="25" text-anchor="middle" dominant-baseline="central" font-size="20" fill="#22242A" stroke-width="0">×</text><text x="25" y="56" fill="#22242A" font-size="11" font-weight="400" font-family="system-ui, -apple-system, Segoe UI, Roboto, sans-serif" text-anchor="middle" dominant-baseline="middle" stroke-width="0">Stratified</text><text x="25" y="71" fill="#22242A" font-size="11" font-weight="400" font-family="system-ui, -apple-system, Segoe UI, Roboto, sans-serif" text-anchor="middle" dominant-baseline="middle" stroke-width="0">allocation</text></g><g class="sf-shape" data-element-id="Cg_Eligibility" data-element-type="bpmn:ExclusiveGateway" transform="translate(520, 1414)"><polygon points="25,0 50,25 25,50 0,25" fill="#ffffff" stroke="#22242A" stroke-width="2" stroke-linecap="round" stroke-linejoin="round"/><text x="25" y="25" text-anchor="middle" dominant-baseline="central" font-size="20" fill="#22242A" stroke-width="0">×</text><text x="25" y="56" fill="#22242A" font-size="11" font-weight="400" font-family="system-ui, -apple-system, Segoe UI, Roboto, sans-serif" text-anchor="middle" dominant-baseline="middle" stroke-width="0">Eligibility</text><text x="25" y="71" fill="#22242A" font-size="11" font-weight="400" font-family="system-ui, -apple-system, Segoe UI, Roboto, sans-serif" text-anchor="middle" dominant-baseline="middle" stroke-width="0">gateway</text></g><g class="sf-shape" data-element-id="Ob_Recording" data-element-type="bpmn:DataStoreReference" transform="translate(160, 1594)"><path d="M0,6 A25,6 0 0 0 50,6 L50,44 A25,6 0 0 1 0,44 Z" fill="#ffffff" stroke="#22242A" stroke-width="2" stroke-linejoin="round"/><path d="M0,6 A25,6 0 0 0 50,6 A25,6 0 0 0 0,6 Z" fill="none" stroke="#22242A" stroke-width="2"/><text x="25" y="63.5" fill="#22242A" font-size="11" font-weight="400" font-family="system-ui, -apple-system, Segoe UI, Roboto, sans-serif" text-anchor="middle" dominant-baseline="middle" stroke-width="0">EEG recording</text></g><g class="sf-shape" data-element-id="Ag_Agent" data-element-type="bpmn:AdHocSubProcess" transform="translate(125, 1759)"><rect x="0" y="0" width="120" height="80" rx="10" ry="10" fill="#ffffff" stroke="#22242A" stroke-width="2"/><g class="sf-icon-placeholder" data-icon-key="AdHocSubProcess"><rect x="5" y="5" width="22" height="22" rx="3" ry="3" fill="none" stroke="#22242A" stroke-width="1" opacity="0.4"/><text x="16" y="16" text-anchor="middle" dominant-baseline="central" font-family="ui-monospace, SFMono-Regular, Menlo, monospace" font-size="13.2" fill="#22242A" stroke-width="0">A</text></g><g class="sf-icon-placeholder" data-icon-key="~"><rect x="52" y="60" width="16" height="16" rx="3" ry="3" fill="none" stroke="#22242A" stroke-width="1" opacity="0.4"/><text x="60" y="68" text-anchor="middle" dominant-baseline="central" font-family="ui-monospace, SFMono-Regular, Menlo, monospace" font-size="9.6" fill="#22242A" stroke-width="0">?</text></g><text x="60" y="40" fill="#22242A" font-size="12" font-weight="600" font-family="system-ui, -apple-system, Segoe UI, Roboto, sans-serif" text-anchor="middle" dominant-baseline="middle" stroke-width="0">Agent</text></g><g class="sf-shape" data-element-id="Ag_Router" data-element-type="bpmn:ExclusiveGateway" transform="translate(340, 1774)"><polygon points="25,0 50,25 25,50 0,25" fill="#ffffff" stroke="#22242A" stroke-width="2" stroke-linecap="round" stroke-linejoin="round"/><text x="25" y="25" text-anchor="middle" dominant-baseline="central" font-size="20" fill="#22242A" stroke-width="0">×</text><text x="25" y="63.5" fill="#22242A" font-size="11" font-weight="400" font-family="system-ui, -apple-system, Segoe UI, Roboto, sans-serif" text-anchor="middle" dominant-baseline="middle" stroke-width="0">Router</text></g><g class="sf-shape" data-element-id="Ag_LLMCall" data-element-type="bpmn:ServiceTask" transform="translate(485, 1759)"><rect x="0" y="0" width="120" height="80" rx="10" ry="10" fill="#ffffff" stroke="#22242A" stroke-width="2"/><g class="sf-icon-placeholder" data-icon-key="ServiceTask"><rect x="5" y="5" width="22" height="22" rx="3" ry="3" fill="none" stroke="#22242A" stroke-width="1" opacity="0.4"/><text x="16" y="16" text-anchor="middle" dominant-baseline="central" font-family="ui-monospace, SFMono-Regular, Menlo, monospace" font-size="13.2" fill="#22242A" stroke-width="0">S</text></g><text x="60" y="40" fill="#22242A" font-size="12" font-weight="600" font-family="system-ui, -apple-system, Segoe UI, Roboto, sans-serif" text-anchor="middle" dominant-baseline="middle" stroke-width="0">LLM call</text></g><g class="sf-shape" data-element-id="Ag_Tool" data-element-type="bpmn:ServiceTask" transform="translate(665, 1759)"><rect x="0" y="0" width="120" height="80" rx="10" ry="10" fill="#ffffff" stroke="#22242A" stroke-width="2"/><g class="sf-icon-placeholder" data-icon-key="ServiceTask"><rect x="5" y="5" width="22" height="22" rx="3" ry="3" fill="none" stroke="#22242A" stroke-width="1" opacity="0.4"/><text x="16" y="16" text-anchor="middle" dominant-baseline="central" font-family="ui-monospace, SFMono-Regular, Menlo, monospace" font-size="13.2" fill="#22242A" stroke-width="0">S</text></g><text x="60" y="40" fill="#22242A" font-size="12" font-weight="600" font-family="system-ui, -apple-system, Segoe UI, Roboto, sans-serif" text-anchor="middle" dominant-baseline="middle" stroke-width="0">Tool</text></g><g class="sf-shape" data-element-id="Ag_HumanApproval" data-element-type="bpmn:UserTask" transform="translate(845, 1759)"><rect x="0" y="0" width="120" height="80" rx="10" ry="10" fill="#ffffff" stroke="#22242A" stroke-width="2"/><g class="sf-icon-placeholder" data-icon-key="UserTask"><rect x="5" y="5" width="22" height="22" rx="3" ry="3" fill="none" stroke="#22242A" stroke-width="1" opacity="0.4"/><text x="16" y="16" text-anchor="middle" dominant-baseline="central" font-family="ui-monospace, SFMono-Regular, Menlo, monospace" font-size="13.2" fill="#22242A" stroke-width="0">U</text></g><text x="60" y="40" fill="#22242A" font-size="12" font-weight="600" font-family="system-ui, -apple-system, Segoe UI, Roboto, sans-serif" text-anchor="middle" dominant-baseline="middle" stroke-width="0">Human approval</text></g><g class="sf-shape" data-element-id="Ag_Prompt" data-element-type="bpmn:DataObjectReference" transform="translate(1060, 1774)"><path d="M0,0 L34,0 L50,16 L50,50 L0,50 Z" fill="#ffffff" stroke="#22242A" stroke-width="2" stroke-linejoin="round"/><path d="M34,0 L34,16 L50,16" fill="none" stroke="#22242A" stroke-width="2" stroke-linejoin="round"/><text x="25" y="63.5" fill="#22242A" font-size="11" font-weight="400" font-family="system-ui, -apple-system, Segoe UI, Roboto, sans-serif" text-anchor="middle" dominant-baseline="middle" stroke-width="0">Prompt</text></g><g class="sf-shape" data-element-id="Ag_Memory" data-element-type="bpmn:DataStoreReference" transform="translate(1240, 1774)"><path d="M0,6 A25,6 0 0 0 50,6 L50,44 A25,6 0 0 1 0,44 Z" fill="#ffffff" stroke="#22242A" stroke-width="2" stroke-linejoin="round"/><path d="M0,6 A25,6 0 0 0 50,6 A25,6 0 0 0 0,6 Z" fill="none" stroke="#22242A" stroke-width="2"/><text x="25" y="63.5" fill="#22242A" font-size="11" font-weight="400" font-family="system-ui, -apple-system, Segoe UI, Roboto, sans-serif" text-anchor="middle" dominant-baseline="middle" stroke-width="0">Memory</text></g><g class="sf-shape" data-element-id="Fn_Transform" data-element-type="bpmn:ServiceTask" transform="translate(125, 1939)"><rect x="0" y="0" width="120" height="80" rx="10" ry="10" fill="#ffffff" stroke="#22242A" stroke-width="2"/><g class="sf-icon-placeholder" data-icon-key="ServiceTask"><rect x="5" y="5" width="22" height="22" rx="3" ry="3" fill="none" stroke="#22242A" stroke-width="1" opacity="0.4"/><text x="16" y="16" text-anchor="middle" dominant-baseline="central" font-family="ui-monospace, SFMono-Regular, Menlo, monospace" font-size="13.2" fill="#22242A" stroke-width="0">S</text></g><text x="60" y="40" fill="#22242A" font-size="12" font-weight="600" font-family="system-ui, -apple-system, Segoe UI, Roboto, sans-serif" text-anchor="middle" dominant-baseline="middle" stroke-width="0">Transform</text></g><g class="sf-shape" data-element-id="Fn_Map" data-element-type="bpmn:ServiceTask" transform="translate(305, 1939)"><rect x="0" y="0" width="120" height="80" rx="10" ry="10" fill="#ffffff" stroke="#22242A" stroke-width="2"/><g class="sf-icon-placeholder" data-icon-key="ServiceTask"><rect x="5" y="5" width="22" height="22" rx="3" ry="3" fill="none" stroke="#22242A" stroke-width="1" opacity="0.4"/><text x="16" y="16" text-anchor="middle" dominant-baseline="central" font-family="ui-monospace, SFMono-Regular, Menlo, monospace" font-size="13.2" fill="#22242A" stroke-width="0">S</text></g><text x="60" y="40" fill="#22242A" font-size="12" font-weight="600" font-family="system-ui, -apple-system, Segoe UI, Roboto, sans-serif" text-anchor="middle" dominant-baseline="middle" stroke-width="0">Map</text></g><g class="sf-shape" data-element-id="Fn_Reduce" data-element-type="bpmn:ServiceTask" transform="translate(485, 1939)"><rect x="0" y="0" width="120" height="80" rx="10" ry="10" fill="#ffffff" stroke="#22242A" stroke-width="2"/><g class="sf-icon-placeholder" data-icon-key="ServiceTask"><rect x="5" y="5" width="22" height="22" rx="3" ry="3" fill="none" stroke="#22242A" stroke-width="1" opacity="0.4"/><text x="16" y="16" text-anchor="middle" dominant-baseline="central" font-family="ui-monospace, SFMono-Regular, Menlo, monospace" font-size="13.2" fill="#22242A" stroke-width="0">S</text></g><text x="60" y="40" fill="#22242A" font-size="12" font-weight="600" font-family="system-ui, -apple-system, Segoe UI, Roboto, sans-serif" text-anchor="middle" dominant-baseline="middle" stroke-width="0">Reduce</text></g><g class="sf-shape" data-element-id="Fn_Filter" data-element-type="bpmn:ServiceTask" transform="translate(665, 1939)"><rect x="0" y="0" width="120" height="80" rx="10" ry="10" fill="#ffffff" stroke="#22242A" stroke-width="2"/><g class="sf-icon-placeholder" data-icon-key="ServiceTask"><rect x="5" y="5" width="22" height="22" rx="3" ry="3" fill="none" stroke="#22242A" stroke-width="1" opacity="0.4"/><text x="16" y="16" text-anchor="middle" dominant-baseline="central" font-family="ui-monospace, SFMono-Regular, Menlo, monospace" font-size="13.2" fill="#22242A" stroke-width="0">S</text></g><text x="60" y="40" fill="#22242A" font-size="12" font-weight="600" font-family="system-ui, -apple-system, Segoe UI, Roboto, sans-serif" text-anchor="middle" dominant-baseline="middle" stroke-width="0">Filter</text></g><g class="sf-shape" data-element-id="Dt_Reader" data-element-type="bpmn:ServiceTask" transform="translate(1045, 1939)"><rect x="0" y="0" width="120" height="80" rx="10" ry="10" fill="#ffffff" stroke="#22242A" stroke-width="2"/><g class="sf-icon-placeholder" data-icon-key="ServiceTask"><rect x="5" y="5" width="22" height="22" rx="3" ry="3" fill="none" stroke="#22242A" stroke-width="1" opacity="0.4"/><text x="16" y="16" text-anchor="middle" dominant-baseline="central" font-family="ui-monospace, SFMono-Regular, Menlo, monospace" font-size="13.2" fill="#22242A" stroke-width="0">S</text></g><text x="60" y="40" fill="#22242A" font-size="12" font-weight="600" font-family="system-ui, -apple-system, Segoe UI, Roboto, sans-serif" text-anchor="middle" dominant-baseline="middle" stroke-width="0">Read data</text></g><g class="sf-shape" data-element-id="Dt_Writer" data-element-type="bpmn:ServiceTask" transform="translate(1205, 1939)"><rect x="0" y="0" width="120" height="80" rx="10" ry="10" fill="#ffffff" stroke="#22242A" stroke-width="2"/><g class="sf-icon-placeholder" data-icon-key="ServiceTask"><rect x="5" y="5" width="22" height="22" rx="3" ry="3" fill="none" stroke="#22242A" stroke-width="1" opacity="0.4"/><text x="16" y="16" text-anchor="middle" dominant-baseline="central" font-family="ui-monospace, SFMono-Regular, Menlo, monospace" font-size="13.2" fill="#22242A" stroke-width="0">S</text></g><text x="60" y="40" fill="#22242A" font-size="12" font-weight="600" font-family="system-ui, -apple-system, Segoe UI, Roboto, sans-serif" text-anchor="middle" dominant-baseline="middle" stroke-width="0">Write data</text></g><g class="sf-shape" data-element-id="Bd_Annotation" data-element-type="bpmn:TextAnnotation" transform="translate(485, 764)"><path d="M10,0 L0,0 L0,50 L10,50" fill="none" stroke="#22242A" stroke-width="2" stroke-linejoin="round"/><text x="6" y="16" font-size="12" font-family="system-ui, sans-serif" fill="#22242A" stroke-width="0">Text annotation</text></g><g class="sf-shape" data-element-id="Group_BpmnEvents" data-element-type="bpmn:Group" transform="translate(60, 60)"><rect x="0" y="0" width="1300" height="154" rx="10" ry="10" fill="none" stroke="#22242A" stroke-width="2" stroke-dasharray="10,6,0,6"/></g><g class="sf-shape" data-element-id="Group_BpmnGateways" data-element-type="bpmn:Group" transform="translate(60, 240)"><rect x="0" y="0" width="1300" height="154" rx="10" ry="10" fill="none" stroke="#22242A" stroke-width="2" stroke-dasharray="10,6,0,6"/></g><g class="sf-shape" data-element-id="Group_BpmnActivities" data-element-type="bpmn:Group" transform="translate(60, 420)"><rect x="0" y="0" width="1300" height="264" rx="10" ry="10" fill="none" stroke="#22242A" stroke-width="2" stroke-dasharray="10,6,0,6"/></g><g class="sf-shape" data-element-id="Group_BpmnData" data-element-type="bpmn:Group" transform="translate(60, 710)"><rect x="0" y="0" width="1300" height="154" rx="10" ry="10" fill="none" stroke="#22242A" stroke-width="2" stroke-dasharray="10,6,0,6"/></g><g class="sf-shape" data-element-id="Group_Studyflow" data-element-type="bpmn:Group" transform="translate(60, 890)"><rect x="0" y="0" width="1300" height="154" rx="10" ry="10" fill="none" stroke="#22242A" stroke-width="2" stroke-dasharray="10,6,0,6"/></g><g class="sf-shape" data-element-id="Group_Exec" data-element-type="bpmn:Group" transform="translate(60, 1070)"><rect x="0" y="0" width="1300" height="154" rx="10" ry="10" fill="none" stroke="#22242A" stroke-width="2" stroke-dasharray="10,6,0,6"/></g><g class="sf-shape" data-element-id="Group_Cognitive" data-element-type="bpmn:Group" transform="translate(60, 1250)"><rect x="0" y="0" width="1300" height="264" rx="10" ry="10" fill="none" stroke="#22242A" stroke-width="2" stroke-dasharray="10,6,0,6"/></g><g class="sf-shape" data-element-id="Group_OpenBCI" data-element-type="bpmn:Group" transform="translate(60, 1540)"><rect x="0" y="0" width="250" height="154" rx="10" ry="10" fill="none" stroke="#22242A" stroke-width="2" stroke-dasharray="10,6,0,6"/></g><g class="sf-shape" data-element-id="Group_Agentic" data-element-type="bpmn:Group" transform="translate(60, 1720)"><rect x="0" y="0" width="1300" height="154" rx="10" ry="10" fill="none" stroke="#22242A" stroke-width="2" stroke-dasharray="10,6,0,6"/></g><g class="sf-shape" data-element-id="Group_Functional" data-element-type="bpmn:Group" transform="translate(60, 1900)"><rect x="0" y="0" width="940" height="154" rx="10" ry="10" fill="none" stroke="#22242A" stroke-width="2" stroke-dasharray="10,6,0,6"/></g><g class="sf-shape" data-element-id="Group_Datatrove" data-element-type="bpmn:Group" transform="translate(1020, 1900)"><rect x="0" y="0" width="340" height="154" rx="10" ry="10" fill="none" stroke="#22242A" stroke-width="2" stroke-dasharray="10,6,0,6"/></g><g class="sf-shape" data-element-id="Ev_Boundary" data-element-type="bpmn:BoundaryEvent" transform="translate(887, 121)"><circle cx="18" cy="18" r="17" fill="#ffffff" stroke="#22242A" stroke-width="1.5" stroke-dasharray="6,4"/><circle cx="18" cy="18" r="14" fill="none" stroke="#22242A" stroke-width="1.5" stroke-dasharray="6,4"/><text x="18" y="49.5" fill="#22242A" font-size="11" font-weight="400" font-family="system-ui, -apple-system, Segoe UI, Roboto, sans-serif" text-anchor="middle" dominant-baseline="middle" stroke-width="0">Boundary</text></g></g><g class="sf-layer sf-layer-overlays" data-layer="overlays"/><g class="sf-layer sf-layer-selection" data-layer="selection"/></svg>