<svg xmlns="http://www.w3.org/2000/svg" width="1436" height="483" preserveAspectRatio="xMidYMid meet" xmlns="http://www.w3.org/2000/svg" viewBox="176 36 1436 483" class="sf-canvas"><defs><marker id="sf-arrow-sequence" markerWidth="10" markerHeight="10" refX="8" refY="5" orient="auto" markerUnits="userSpaceOnUse"><path d="M1,1 L9,5 L1,9 Z" fill="context-stroke" stroke="context-stroke" stroke-width="1" stroke-linejoin="round"/></marker><marker id="sf-arrow-message" markerWidth="10" markerHeight="10" refX="8" refY="5" orient="auto" markerUnits="userSpaceOnUse"><path d="M1,1 L9,5 L1,9 Z" fill="none" stroke="context-stroke" stroke-width="1" stroke-linejoin="round"/></marker><marker id="sf-arrow-open" markerWidth="10" markerHeight="10" refX="8" refY="5" orient="auto" markerUnits="userSpaceOnUse"><path d="M1,1 L9,5 L1,9 Z" fill="none" stroke="context-stroke" stroke-width="1" stroke-linejoin="round"/></marker><marker id="sf-marker-default" markerWidth="10" markerHeight="10" refX="0" refY="5" orient="auto" markerUnits="userSpaceOnUse"><path d="M3,2 L7,8" fill="none" stroke="context-stroke" stroke-width="1.5"/></marker><marker id="sf-marker-message-start" markerWidth="10" markerHeight="10" refX="1.5" refY="5" orient="auto" markerUnits="userSpaceOnUse"><circle cx="5" cy="5" r="3" fill="#ffffff" stroke="context-stroke" stroke-width="1"/></marker></defs><g class="sf-layer sf-layer-elements" data-layer="elements"><g class="sf-connection" data-element-id="Flow_Start_Welcome" data-element-type="bpmn:SequenceFlow"><path class="sf-connection-line" d="M 216 218 L 270 218" data-waypoints="216,218 270,218" fill="none" stroke="#44403c" stroke-width="1.5" stroke-linejoin="round" stroke-linecap="round" marker-end="url(#sf-arrow-sequence)"/></g><g class="sf-connection" data-element-id="Flow_Welcome_PHQ9" data-element-type="bpmn:SequenceFlow"><path class="sf-connection-line" d="M 390 218 L 420 218" data-waypoints="390,218 420,218" fill="none" stroke="#44403c" stroke-width="1.5" stroke-linejoin="round" stroke-linecap="round" marker-end="url(#sf-arrow-sequence)"/></g><g class="sf-connection" data-element-id="Flow_PHQ9_GAD7" data-element-type="bpmn:SequenceFlow"><path class="sf-connection-line" d="M 540 218 L 570 218" data-waypoints="540,218 570,218" fill="none" stroke="#44403c" stroke-width="1.5" stroke-linejoin="round" stroke-linecap="round" marker-end="url(#sf-arrow-sequence)"/></g><g class="sf-connection" data-element-id="Flow_GAD7_Warmup" data-element-type="bpmn:SequenceFlow"><path class="sf-connection-line" d="M 690 218 L 720 218" data-waypoints="690,218 720,218" fill="none" stroke="#44403c" stroke-width="1.5" stroke-linejoin="round" stroke-linecap="round" marker-end="url(#sf-arrow-sequence)"/></g><g class="sf-connection" data-element-id="Flow_Warmup_Allocate" data-element-type="bpmn:SequenceFlow"><path class="sf-connection-line" d="M 840 218 L 905 218" data-waypoints="840,218 905,218" fill="none" stroke="#44403c" stroke-width="1.5" stroke-linejoin="round" stroke-linecap="round" marker-end="url(#sf-arrow-sequence)"/></g><g class="sf-connection" data-element-id="Flow_To_Dual" data-element-type="bpmn:SequenceFlow"><path class="sf-connection-line" d="M 930 193 L 930 106 A 6 6 0 0 1 936 100 L 1050 100" data-waypoints="930,193 930,100 1050,100" fill="none" stroke="#44403c" stroke-width="1.5" stroke-linejoin="round" stroke-linecap="round" marker-end="url(#sf-arrow-sequence)"/></g><g class="sf-connection" data-element-id="Flow_To_XCIT" data-element-type="bpmn:SequenceFlow"><path class="sf-connection-line" d="M 955 218 L 1050 218" data-waypoints="955,218 1050,218" fill="none" stroke="#44403c" stroke-width="1.5" stroke-linejoin="round" stroke-linecap="round" marker-end="url(#sf-arrow-sequence)"/></g><g class="sf-connection" data-element-id="Flow_To_Demo" data-element-type="bpmn:SequenceFlow"><path class="sf-connection-line" d="M 930 243 L 930 329 A 6 6 0 0 0 936 335 L 1050 335" data-waypoints="930,243 930,335 1050,335" fill="none" stroke="#44403c" stroke-width="1.5" stroke-linejoin="round" stroke-linecap="round" marker-end="url(#sf-arrow-sequence)"/></g><g class="sf-connection" data-element-id="Flow_Dual_PostPHQ9" data-element-type="bpmn:SequenceFlow"><path class="sf-connection-line" d="M 1170 100 L 1344 100 A 6 6 0 0 1 1350 106 L 1350 212 A 6 6 0 0 0 1356 218 L 1390 218" data-waypoints="1170,100 1350,100 1350,218 1390,218" fill="none" stroke="#44403c" stroke-width="1.5" stroke-linejoin="round" stroke-linecap="round" marker-end="url(#sf-arrow-sequence)"/></g><g class="sf-connection" data-element-id="Flow_XCIT_PostPHQ9" data-element-type="bpmn:SequenceFlow"><path class="sf-connection-line" d="M 1170 218 L 1390 218" data-waypoints="1170,218 1390,218" fill="none" stroke="#44403c" stroke-width="1.5" stroke-linejoin="round" stroke-linecap="round" marker-end="url(#sf-arrow-sequence)"/></g><g class="sf-connection" data-element-id="Flow_Demo_BDI2" data-element-type="bpmn:SequenceFlow"><path class="sf-connection-line" d="M 1170 335 L 1200 335" data-waypoints="1170,335 1200,335" fill="none" stroke="#44403c" stroke-width="1.5" stroke-linejoin="round" stroke-linecap="round" marker-end="url(#sf-arrow-sequence)"/></g><g class="sf-connection" data-element-id="Flow_BDI2_PostPHQ9" data-element-type="bpmn:SequenceFlow"><path class="sf-connection-line" d="M 1320 335 L 1344 335 A 6 6 0 0 0 1350 329 L 1350 224 A 6 6 0 0 1 1356 218 L 1390 218" data-waypoints="1320,335 1350,335 1350,218 1390,218" fill="none" stroke="#44403c" stroke-width="1.5" stroke-linejoin="round" stroke-linecap="round" marker-end="url(#sf-arrow-sequence)"/></g><g class="sf-connection" data-element-id="Flow_PostPHQ9_End" data-element-type="bpmn:SequenceFlow"><path class="sf-connection-line" d="M 1510 218 L 1572 218" data-waypoints="1510,218 1572,218" fill="none" stroke="#44403c" stroke-width="1.5" stroke-linejoin="round" stroke-linecap="round" marker-end="url(#sf-arrow-sequence)"/></g><g class="sf-external-label" data-element-id="Flow_To_Dual_label" data-element-type="bpmn:SequenceFlow" data-label-owner="Flow_To_Dual" transform="translate(961, 83)"><text class="sf-label" x="19.5" y="7.5" fill="#78716c" font-size="11" font-weight="400" font-family="&quot;IBM Plex Sans&quot;, Helvetica, sans-serif" text-anchor="middle" dominant-baseline="middle" stroke-width="0">Diff…</text></g><g class="sf-external-label" data-element-id="Flow_To_XCIT_label" data-element-type="bpmn:SequenceFlow" data-label-owner="Flow_To_XCIT" transform="translate(969, 200)"><text class="sf-label" x="11.5" y="7.5" fill="#78716c" font-size="11" font-weight="400" font-family="&quot;IBM Plex Sans&quot;, Helvetica, sans-serif" text-anchor="middle" dominant-baseline="middle" stroke-width="0">Ea…</text></g><g class="sf-external-label" data-element-id="Flow_To_Demo_label" data-element-type="bpmn:SequenceFlow" data-label-owner="Flow_To_Demo" transform="translate(962, 319)"><text class="sf-label" x="18.5" y="7.5" fill="#78716c" font-size="11" font-weight="400" font-family="&quot;IBM Plex Sans&quot;, Helvetica, sans-serif" text-anchor="middle" dominant-baseline="middle" stroke-width="0">Cont…</text></g><g class="sf-shape" data-element-id="Start" data-element-type="bpmn:StartEvent" transform="translate(180, 200)"><circle cx="18" cy="18" r="18" fill="#ffffff" stroke="#44403c" stroke-width="1.5"/></g><g class="sf-shape" data-element-id="Welcome_Instruction" data-element-type="bpmn:Task" transform="translate(270, 178)"><rect x="0" y="0" width="120" height="80" rx="12" ry="12" fill="#ffffff" stroke="#44403c" stroke-width="1.5"/><text class="sf-label" x="60" y="45" fill="#1c1917" font-size="12" font-weight="500" font-family="&quot;IBM Plex Sans&quot;, Helvetica, sans-serif" text-anchor="middle" dominant-baseline="middle" stroke-width="0">Welcome</text></g><g class="sf-shape" data-element-id="PHQ_9_baseline" data-element-type="bpmn:Task" transform="translate(420, 178)"><rect x="0" y="0" width="120" height="80" rx="12" ry="12" fill="#ffffff" stroke="#44403c" stroke-width="1.5"/><text class="sf-label" x="60" y="45" fill="#1c1917" font-size="12" font-weight="500" font-family="&quot;IBM Plex Sans&quot;, Helvetica, sans-serif" text-anchor="middle" dominant-baseline="middle" stroke-width="0">PHQ-9</text></g><g class="sf-shape" data-element-id="GAD_7_baseline" data-element-type="bpmn:Task" transform="translate(570, 178)"><rect x="0" y="0" width="120" height="80" rx="12" ry="12" fill="#ffffff" stroke="#44403c" stroke-width="1.5"/><text class="sf-label" x="60" y="45" fill="#1c1917" font-size="12" font-weight="500" font-family="&quot;IBM Plex Sans&quot;, Helvetica, sans-serif" text-anchor="middle" dominant-baseline="middle" stroke-width="0">GAD-7</text></g><g class="sf-shape" data-element-id="Warmup_1Back" data-element-type="bpmn:ChoreographyTask" transform="translate(720, 158)"><rect x="0" y="0" rx="12" ry="12" width="120" height="120" fill="#ffffff" stroke="none"/><path d="M0,20 L0,12 Q0,0 12,0 L108,0 Q120,0 120,12 L120,20 Z" fill="#ffffff" stroke="none" data-band="top"/><path d="M0,100 L120,100 L120,108 Q120,120 108,120 L12,120 Q0,120 0,108 Z" fill="#f5f5f4" stroke="none" data-band="bottom"/><line x1="0" y1="20" x2="120" y2="20" stroke="#44403c" stroke-width="1"/><line x1="0" y1="100" x2="120" y2="100" stroke="#44403c" stroke-width="1"/><rect x="0" y="0" rx="12" ry="12" width="120" height="120" fill="none" stroke="#44403c" stroke-width="1.5"/><text class="sf-label" x="60" y="10" fill="#1c1917" font-size="11" font-weight="400" font-family="&quot;IBM Plex Sans&quot;, Helvetica, sans-serif" text-anchor="middle" dominant-baseline="middle" stroke-width="0">Behaverse · NB</text><text class="sf-label" x="60" y="110" fill="#1c1917" font-size="11" font-weight="400" font-family="&quot;IBM Plex Sans&quot;, Helvetica, sans-serif" text-anchor="middle" dominant-baseline="middle" stroke-width="0">Random bot</text><g transform="translate(0, 20)"><text class="sf-label" x="60" y="45" fill="#1c1917" font-size="12" font-weight="500" font-family="&quot;IBM Plex Sans&quot;, Helvetica, sans-serif" text-anchor="middle" dominant-baseline="middle" stroke-width="0">1-Back (warm-up)</text></g><g transform="translate(0, 20)"><g class="sf-icon-placeholder" data-icon-key="ChoreographyTask"><rect x="6" y="6" width="24" height="24" rx="3" ry="3" fill="none" stroke="#78716c" stroke-width="1" opacity="0.4"/><text x="18" y="18" text-anchor="middle" dominant-baseline="central" font-family="ui-monospace, SFMono-Regular, Menlo, monospace" font-size="14.399999999999999" fill="#78716c" stroke-width="0">C</text></g><text class="sf-icon-text" x="18" y="18" text-anchor="middle" dominant-baseline="central" font-family="ui-monospace, SFMono-Regular, Menlo, monospace" font-size="13.200000000000001" font-weight="bold" fill="#44403c" stroke-width="0">NB</text></g></g><g class="sf-shape" data-element-id="Allocate" data-element-type="bpmn:ExclusiveGateway" transform="translate(905, 193)"><polygon points="25,0 50,25 25,50 0,25" fill="#ffffff" stroke="#44403c" stroke-width="1.5" stroke-linecap="round" stroke-linejoin="round"/><path d="M19,19 L31,31 M31,19 L19,31" fill="none" stroke="#44403c" stroke-width="2" stroke-linecap="round"/></g><g class="sf-shape" data-element-id="Arm_Dual2Back" data-element-type="bpmn:ChoreographyTask" transform="translate(1050, 40)"><rect x="0" y="0" rx="12" ry="12" width="120" height="120" fill="#ffffff" stroke="none"/><path d="M0,20 L0,12 Q0,0 12,0 L108,0 Q120,0 120,12 L120,20 Z" fill="#ffffff" stroke="none" data-band="top"/><path d="M0,100 L120,100 L120,108 Q120,120 108,120 L12,120 Q0,120 0,108 Z" fill="#f5f5f4" stroke="none" data-band="bottom"/><line x1="0" y1="20" x2="120" y2="20" stroke="#44403c" stroke-width="1"/><line x1="0" y1="100" x2="120" y2="100" stroke="#44403c" stroke-width="1"/><rect x="0" y="0" rx="12" ry="12" width="120" height="120" fill="none" stroke="#44403c" stroke-width="1.5"/><text class="sf-label" x="60" y="10" fill="#1c1917" font-size="11" font-weight="400" font-family="&quot;IBM Plex Sans&quot;, Helvetica, sans-serif" text-anchor="middle" dominant-baseline="middle" stroke-width="0">Behaverse · NB</text><text class="sf-label" x="60" y="110" fill="#1c1917" font-size="11" font-weight="400" font-family="&quot;IBM Plex Sans&quot;, Helvetica, sans-serif" text-anchor="middle" dominant-baseline="middle" stroke-width="0">Random bot</text><g transform="translate(0, 20)"><text class="sf-label" x="60" y="45" fill="#1c1917" font-size="12" font-weight="500" font-family="&quot;IBM Plex Sans&quot;, Helvetica, sans-serif" text-anchor="middle" dominant-baseline="middle" stroke-width="0">2-Back (Symbols)</text></g><g transform="translate(0, 20)"><g class="sf-icon-placeholder" data-icon-key="ChoreographyTask"><rect x="6" y="6" width="24" height="24" rx="3" ry="3" fill="none" stroke="#78716c" stroke-width="1" opacity="0.4"/><text x="18" y="18" text-anchor="middle" dominant-baseline="central" font-family="ui-monospace, SFMono-Regular, Menlo, monospace" font-size="14.399999999999999" fill="#78716c" stroke-width="0">C</text></g><text class="sf-icon-text" x="18" y="18" text-anchor="middle" dominant-baseline="central" font-family="ui-monospace, SFMono-Regular, Menlo, monospace" font-size="13.200000000000001" font-weight="bold" fill="#44403c" stroke-width="0">NB</text></g></g><g class="sf-shape" data-element-id="Arm_XCIT_NB_03" data-element-type="bpmn:Task" transform="translate(1050, 178)"><rect x="0" y="0" width="120" height="80" rx="12" ry="12" fill="#ffffff" stroke="#44403c" stroke-width="1.5"/><text class="sf-icon-text" x="18" y="18" text-anchor="middle" dominant-baseline="central" font-family="ui-monospace, SFMono-Regular, Menlo, monospace" font-size="13.200000000000001" font-weight="bold" fill="#44403c" stroke-width="0">NB</text><text class="sf-label" x="60" y="37.5" fill="#1c1917" font-size="12" font-weight="500" font-family="&quot;IBM Plex Sans&quot;, Helvetica, sans-serif" text-anchor="middle" dominant-baseline="middle" stroke-width="0">2-Back (Digits,</text><text class="sf-label" x="60" y="52.5" fill="#1c1917" font-size="12" font-weight="500" font-family="&quot;IBM Plex Sans&quot;, Helvetica, sans-serif" text-anchor="middle" dominant-baseline="middle" stroke-width="0">human)</text></g><g class="sf-shape" data-element-id="Arm_Demo" data-element-type="bpmn:ChoreographyTask" transform="translate(1050, 275)"><rect x="0" y="0" rx="12" ry="12" width="120" height="120" fill="#ffffff" stroke="none"/><path d="M0,20 L0,12 Q0,0 12,0 L108,0 Q120,0 120,12 L120,20 Z" fill="#ffffff" stroke="none" data-band="top"/><path d="M0,100 L120,100 L120,108 Q120,120 108,120 L12,120 Q0,120 0,108 Z" fill="#f5f5f4" stroke="none" data-band="bottom"/><line x1="0" y1="20" x2="120" y2="20" stroke="#44403c" stroke-width="1"/><line x1="0" y1="100" x2="120" y2="100" stroke="#44403c" stroke-width="1"/><rect x="0" y="0" rx="12" ry="12" width="120" height="120" fill="none" stroke="#44403c" stroke-width="1.5"/><text class="sf-label" x="60" y="10" fill="#1c1917" font-size="11" font-weight="400" font-family="&quot;IBM Plex Sans&quot;, Helvetica, sans-serif" text-anchor="middle" dominant-baseline="middle" stroke-width="0">Behaverse · NB</text><text class="sf-label" x="60" y="110" fill="#1c1917" font-size="11" font-weight="400" font-family="&quot;IBM Plex Sans&quot;, Helvetica, sans-serif" text-anchor="middle" dominant-baseline="middle" stroke-width="0">Random bot</text><g transform="translate(0, 20)"><text class="sf-label" x="60" y="45" fill="#1c1917" font-size="12" font-weight="500" font-family="&quot;IBM Plex Sans&quot;, Helvetica, sans-serif" text-anchor="middle" dominant-baseline="middle" stroke-width="0">1-Back</text></g><g transform="translate(0, 20)"><g class="sf-icon-placeholder" data-icon-key="ChoreographyTask"><rect x="6" y="6" width="24" height="24" rx="3" ry="3" fill="none" stroke="#78716c" stroke-width="1" opacity="0.4"/><text x="18" y="18" text-anchor="middle" dominant-baseline="central" font-family="ui-monospace, SFMono-Regular, Menlo, monospace" font-size="14.399999999999999" fill="#78716c" stroke-width="0">C</text></g><text class="sf-icon-text" x="18" y="18" text-anchor="middle" dominant-baseline="central" font-family="ui-monospace, SFMono-Regular, Menlo, monospace" font-size="13.200000000000001" font-weight="bold" fill="#44403c" stroke-width="0">NB</text></g></g><g class="sf-shape" data-element-id="BDI_II" data-element-type="bpmn:Task" transform="translate(1200, 295)"><rect x="0" y="0" width="120" height="80" rx="12" ry="12" fill="#ffffff" stroke="#44403c" stroke-width="1.5"/><text class="sf-label" x="60" y="45" fill="#1c1917" font-size="12" font-weight="500" font-family="&quot;IBM Plex Sans&quot;, Helvetica, sans-serif" text-anchor="middle" dominant-baseline="middle" stroke-width="0">BDI-II</text></g><g class="sf-shape" data-element-id="PHQ_9_followup" data-element-type="bpmn:Task" transform="translate(1390, 178)"><rect x="0" y="0" width="120" height="80" rx="12" ry="12" fill="#ffffff" stroke="#44403c" stroke-width="1.5"/><text class="sf-label" x="60" y="45" fill="#1c1917" font-size="12" font-weight="500" font-family="&quot;IBM Plex Sans&quot;, Helvetica, sans-serif" text-anchor="middle" dominant-baseline="middle" stroke-width="0">PHQ-9</text></g><g class="sf-shape" data-element-id="End" data-element-type="bpmn:EndEvent" transform="translate(1572, 200)"><circle cx="18" cy="18" r="16.875" fill="#ffffff" stroke="#44403c" stroke-width="3.75"/></g><g class="sf-shape" data-element-id="SessionData" data-element-type="bpmn:DataStoreReference" transform="translate(1425, 430)"><path d="M0,6 A25,6 0 0 0 50,6 L50,44 A25,6 0 0 1 0,44 Z" fill="#ffffff" stroke="#44403c" stroke-width="1.5" stroke-linejoin="round"/><path d="M0,6 A25,6 0 0 0 50,6 A25,6 0 0 0 0,6 Z" fill="none" stroke="#44403c" stroke-width="1.5"/></g><g class="sf-external-label" data-element-id="Start_label" data-element-type="bpmn:StartEvent" data-label-owner="Start" transform="translate(186, 243)"><text class="sf-label" x="12" y="7.5" fill="#78716c" font-size="11" font-weight="400" font-family="&quot;IBM Plex Sans&quot;, Helvetica, sans-serif" text-anchor="middle" dominant-baseline="middle" stroke-width="0">We…</text></g><g class="sf-external-label" data-element-id="Allocate_label" data-element-type="bpmn:ExclusiveGateway" data-label-owner="Allocate" transform="translate(865, 176)"><text class="sf-label" x="24.5" y="7.5" fill="#78716c" font-size="11" font-weight="400" font-family="&quot;IBM Plex Sans&quot;, Helvetica, sans-serif" text-anchor="middle" dominant-baseline="middle" stroke-width="0">Random</text><text class="sf-label" x="24.5" y="22.5" fill="#78716c" font-size="11" font-weight="400" font-family="&quot;IBM Plex Sans&quot;, Helvetica, sans-serif" text-anchor="middle" dominant-baseline="middle" stroke-width="0">alloca…</text></g><g class="sf-external-label" data-element-id="End_label" data-element-type="bpmn:EndEvent" data-label-owner="End" transform="translate(1580, 243)"><text class="sf-label" x="10" y="7.5" fill="#78716c" font-size="11" font-weight="400" font-family="&quot;IBM Plex Sans&quot;, Helvetica, sans-serif" text-anchor="middle" dominant-baseline="middle" stroke-width="0">E…</text></g><g class="sf-external-label" data-element-id="SessionData_label" data-element-type="bpmn:DataStoreReference" data-label-owner="SessionData" transform="translate(1413, 485)"><text class="sf-label" x="37" y="7.5" fill="#78716c" font-size="11" font-weight="400" font-family="&quot;IBM Plex Sans&quot;, Helvetica, sans-serif" text-anchor="middle" dominant-baseline="middle" stroke-width="0">Session</text><text class="sf-label" x="37" y="22.5" fill="#78716c" font-size="11" font-weight="400" font-family="&quot;IBM Plex Sans&quot;, Helvetica, sans-serif" text-anchor="middle" dominant-baseline="middle" stroke-width="0">data</text></g><g class="sf-connection" data-element-id="DataOutput_Session" data-element-type="bpmn:DataOutputAssociation"><path class="sf-connection-line" d="M 1450 258 L 1450 430" data-waypoints="1450,258 1450,430" fill="none" stroke="#44403c" stroke-width="1.5" stroke-linejoin="round" stroke-linecap="round" stroke-dasharray="2,5" marker-end="url(#sf-arrow-open)"/></g></g><g class="sf-layer sf-layer-overlays" data-layer="overlays"/></svg>