<svg xmlns="http://www.w3.org/2000/svg" width="16" height="16" viewBox="0 0 49 16" fill="currentColor" fill-opacity="0.6">
<path d="M 6.195312 12.929688 L 2.9375 12.929688 L 2.9375 9.183594 L 6.375 9.183594 C 7.820312 9.183594 9.296875 9.402344 9.296875 11.03125 C 9.296875 12.699219 7.808594 12.929688 6.195312 12.929688 Z M 6.152344 3.113281 C 8.039062 3.113281 8.804688 3.644531 8.804688 4.941406 C 8.804688 5.421875 8.574219 6.542969 6.441406 6.542969 L 2.9375 6.542969 L 2.9375 3.929688 L 1.074219 3.113281 Z M 10.511719 7.785156 L 10.148438 7.613281 L 10.453125 7.347656 C 11.398438 6.511719 11.882812 5.4375 11.882812 4.152344 C 11.882812 1.601562 10.195312 0.363281 6.734375 0.363281 L 0 0.363281 L 0 15.679688 L 6.554688 15.679688 C 8.734375 15.679688 12.394531 15.101562 12.394531 11.238281 C 12.394531 9.527344 11.777344 8.398438 10.511719 7.785156 "/>
<path d="M 18.203125 0.363281 L 15.265625 0.363281 L 15.265625 15.679688 L 18.203125 15.679688 L 18.203125 0.363281 "/>
<path d="M 26.402344 12.929688 L 24.6875 12.929688 L 24.6875 3.992188 L 22.582031 3.113281 L 26.402344 3.113281 C 30.210938 3.113281 32.140625 4.695312 32.140625 7.816406 C 32.140625 11.210938 30.210938 12.929688 26.402344 12.929688 Z M 26.445312 0.363281 L 21.746094 0.363281 L 21.746094 15.679688 L 26.113281 15.679688 C 29.171875 15.679688 31.472656 14.945312 32.949219 13.492188 C 34.4375 12.046875 35.191406 10.140625 35.191406 7.816406 C 35.191406 5.03125 34.054688 0.363281 26.445312 0.363281 "/>
<path d="M 49.027344 11.28125 C 49.027344 10.46875 48.824219 9.742188 48.421875 9.121094 C 47.621094 7.9375 46.4375 7.457031 44.847656 6.914062 C 44.28125 6.71875 43.722656 6.570312 43.183594 6.421875 C 41.640625 6.007812 40.308594 5.648438 40.308594 4.511719 C 40.308594 3.710938 40.761719 2.753906 42.917969 2.753906 C 44.414062 2.753906 45.707031 3.339844 46.863281 4.542969 L 48.824219 2.628906 C 47.425781 0.859375 45.535156 0 43.054688 0 C 41.335938 0 39.925781 0.460938 38.863281 1.363281 C 37.78125 2.265625 37.257812 3.308594 37.257812 4.558594 C 37.257812 7.257812 39.265625 8.25 41.433594 8.921875 C 41.960938 9.101562 42.453125 9.238281 42.925781 9.371094 C 43.828125 9.621094 44.605469 9.839844 45.210938 10.246094 C 45.699219 10.574219 45.980469 11.050781 45.980469 11.554688 C 45.980469 12.046875 45.714844 12.503906 45.253906 12.816406 C 44.820312 13.132812 44.171875 13.289062 43.277344 13.289062 C 41.40625 13.289062 39.714844 12.351562 38.59375 10.703125 L 36.457031 12.5 C 37.710938 14.753906 40.214844 16.042969 43.367188 16.042969 C 45.003906 16.042969 46.328125 15.589844 47.421875 14.65625 C 48.488281 13.765625 49.027344 12.632812 49.027344 11.28125 "/>
</svg>
