<?xml version="1.0" encoding="UTF-8"?>
<svg xmlns="http://www.w3.org/2000/svg" width="16" height="16" fill="currentColor" class="sfi sfi-RandomShuffleDiamond" viewBox="0 0 16 16">
<g>
  <path d="m11.44,4.85l0,1.56c0,0.12 -0.08,0.24 -0.19,0.29c-0.04,0.01 -0.08,0.02 -0.12,0.02c-0.09,0 -0.17,-0.03 -0.23,-0.09l-0.56,-0.56l-1.23,1.24c-0.06,0.05 -0.15,0.09 -0.23,0.09c-0.08,0 -0.16,-0.04 -0.22,-0.09c-0.05,-0.06 -0.09,-0.14 -0.09,-0.22c0,-0.09 0.04,-0.17 0.09,-0.23l1.24,-1.23l-0.56,-0.56c-0.09,-0.1 -0.11,-0.23 -0.07,-0.35c0.05,-0.11 0.17,-0.19 0.29,-0.19l1.57,0c0.17,0 0.31,0.14 0.31,0.32zm-0.19,4.39c-0.12,-0.04 -0.25,-0.02 -0.35,0.07l-0.56,0.56l-5.24,-5.25c-0.13,-0.1 -0.31,-0.09 -0.43,0.02c-0.11,0.12 -0.12,0.3 -0.02,0.43l5.25,5.24l-0.56,0.56c-0.09,0.1 -0.11,0.23 -0.07,0.35c0.05,0.11 0.17,0.19 0.29,0.19l1.57,0c0.17,0 0.31,-0.14 0.31,-0.31l0,-1.57c0,-0.12 -0.08,-0.24 -0.19,-0.29zm-4.36,-0.61l-2.24,2.24c-0.12,0.13 -0.12,0.32 0,0.45c0.13,0.12 0.32,0.12 0.45,0l2.24,-2.24c0.11,-0.13 0.1,-0.32 -0.02,-0.43c-0.11,-0.12 -0.3,-0.13 -0.43,-0.02zm0,0" />
  <path d="m6.95,0.44c0.58,-0.58 1.52,-0.58 2.1,0l6.52,6.51c0.57,0.58 0.57,1.52 0,2.1l-6.52,6.51c-0.58,0.58 -1.52,0.58 -2.1,0l-6.52,-6.51a1.48,1.48 0 0 1 0,-2.1l6.52,-6.51zm1.4,0.7a0.49,0.49 0 0 0 -0.7,0l-6.52,6.51a0.49,0.49 0 0 0 0,0.7l6.52,6.52a0.49,0.49 0 0 0 0.7,0l6.52,-6.52a0.49,0.49 0 0 0 0,-0.7l-6.52,-6.52l0,0.01z"/>
</g>
</svg>
