<?xml version="1.0" encoding="UTF-8"?>
<svg xmlns="http://www.w3.org/2000/svg" width="16" height="16" fill="currentColor" class="sfi sfi-RandomShuffleDiamond" viewBox="0 0 16 16">
<g>
<path transform="translate(3,3)" d="M 8.4375 1.875 L 8.4375 3.4375 C 8.4375 3.5625 8.363281 3.675781 8.246094 3.726562 C 8.207031 3.742188 8.167969 3.75 8.125 3.75 C 8.042969 3.75 7.960938 3.71875 7.902344 3.660156 L 7.34375 3.097656 L 6.105469 4.335938 C 6.046875 4.394531 5.964844 4.429688 5.882812 4.429688 C 5.800781 4.429688 5.722656 4.394531 5.664062 4.335938 C 5.605469 4.277344 5.570312 4.199219 5.570312 4.117188 C 5.570312 4.03125 5.605469 3.953125 5.664062 3.894531 L 6.902344 2.65625 L 6.339844 2.097656 C 6.253906 2.003906 6.226562 1.871094 6.273438 1.753906 C 6.324219 1.636719 6.4375 1.5625 6.5625 1.5625 L 8.125 1.5625 C 8.296875 1.5625 8.4375 1.703125 8.4375 1.875 Z M 8.246094 6.273438 C 8.128906 6.226562 7.996094 6.253906 7.902344 6.339844 L 7.34375 6.902344 L 2.097656 1.652344 C 1.972656 1.550781 1.789062 1.558594 1.671875 1.671875 C 1.558594 1.789062 1.550781 1.972656 1.652344 2.097656 L 6.902344 7.34375 L 6.339844 7.902344 C 6.253906 7.996094 6.226562 8.128906 6.273438 8.246094 C 6.324219 8.363281 6.4375 8.4375 6.5625 8.4375 L 8.125 8.4375 C 8.296875 8.4375 8.4375 8.296875 8.4375 8.125 L 8.4375 6.5625 C 8.4375 6.4375 8.363281 6.324219 8.246094 6.273438 Z M 3.894531 5.664062 L 1.652344 7.902344 C 1.53125 8.027344 1.53125 8.222656 1.652344 8.347656 C 1.777344 8.46875 1.972656 8.46875 2.097656 8.347656 L 4.335938 6.105469 C 4.449219 5.980469 4.441406 5.792969 4.324219 5.675781 C 4.207031 5.558594 4.019531 5.550781 3.894531 5.664062 Z M 3.894531 5.664062 "/>
  <path d="M6.95.435c.58-.58 1.52-.58 2.1 0l6.515 6.516c.58.58.58 1.519 0 2.098L9.05 15.565c-.58.58-1.519.58-2.098 0L.435 9.05a1.48 1.48 0 0 1 0-2.098zm1.4.7a.495.495 0 0 0-.7 0L1.134 7.65a.495.495 0 0 0 0 .7l6.516 6.516a.495.495 0 0 0 .7 0l6.516-6.516a.495.495 0 0 0 0-.7L8.35 1.134z"/>
</g>
</svg>
