<svg xmlns="http://www.w3.org/2000/svg" width="16" height="16" fill="currentColor" class="sfi-RandomGateway" viewBox="0 0 16 16">
  <path d="m8.44,1.88l0,1.56c0,0.12 -0.08,0.24 -0.19,0.29c-0.04,0.01 -0.08,0.02 -0.12,0.02c-0.09,0 -0.17,-0.03 -0.23,-0.09l-0.56,-0.56l-1.23,1.24c-0.06,0.05 -0.15,0.09 -0.23,0.09c-0.08,0 -0.16,-0.04 -0.22,-0.09c-0.05,-0.06 -0.09,-0.14 -0.09,-0.22c0,-0.09 0.04,-0.17 0.09,-0.23l1.24,-1.23l-0.56,-0.56c-0.09,-0.1 -0.11,-0.23 -0.07,-0.35c0.05,-0.11 0.17,-0.19 0.29,-0.19l1.57,0c0.17,0 0.31,0.14 0.31,0.32zm-0.19,4.39c-0.12,-0.04 -0.25,-0.02 -0.35,0.07l-0.56,0.56l-5.24,-5.25c-0.13,-0.1 -0.31,-0.09 -0.43,0.02c-0.11,0.12 -0.12,0.3 -0.02,0.43l5.25,5.24l-0.56,0.56c-0.09,0.1 -0.11,0.23 -0.07,0.35c0.05,0.11 0.17,0.19 0.29,0.19l1.57,0c0.17,0 0.31,-0.14 0.31,-0.31l0,-1.57c0,-0.12 -0.08,-0.24 -0.19,-0.29zm-4.36,-0.61l-2.24,2.24c-0.12,0.13 -0.12,0.32 0,0.45c0.13,0.12 0.32,0.12 0.45,0l2.24,-2.24c0.11,-0.13 0.1,-0.32 -0.02,-0.43c-0.11,-0.12 -0.3,-0.13 -0.43,-0.02zm0,0"/>
</svg>