<?xml version="1.0" encoding="utf-8"?>
<!-- created with bpmn-js / http://bpmn.io -->
<!DOCTYPE svg PUBLIC "-//W3C//DTD SVG 1.1//EN" "http://www.w3.org/Graphics/SVG/1.1/DTD/svg11.dtd">
<svg xmlns="http://www.w3.org/2000/svg" xmlns:xlink="http://www.w3.org/1999/xlink" width="70" height="80.89794921875" viewBox="265 220.10205078125 70 80.89794921875" version="1.1"><defs><pattern id="djs-grid-pattern-827651" width="10" height="10" patternUnits="userSpaceOnUse"><circle cx="0.5" cy="0.5" r="0.5" style="fill: rgb(204, 204, 204);"/></pattern></defs><g class="djs-group"><g class="djs-element djs-shape" data-element-id="DataStoreReference_0qyuc3t" style="display: block;" transform="matrix(1 0 0 1 275 225)"><g class="djs-visual"><path d="m  0,6.65 l  0,36.885245901639344 c  1.639344262295082,8.196721311475411 47.540983606557376,8.196721311475411  49.18032786885246,0 l  0,-36.885245901639344 c -1.639344262295082,-8.196721311475411 -47.540983606557376,-8.196721311475411 -49.18032786885246,0c  1.639344262295082,8.196721311475411 47.540983606557376,8.196721311475411  49.18032786885246,0 m  -49.18032786885246,5.737704918032787c  1.639344262295082,8.196721311475411 47.540983606557376,8.196721311475411 49.18032786885246,0m  -49.18032786885246,5.737704918032787c  1.639344262295082,8.196721311475411 47.540983606557376,8.196721311475411  49.18032786885246,0" style="fill: white; stroke-linecap: round; stroke-linejoin: round; stroke: rgb(34, 36, 42); stroke-width: 2px; fill-opacity: 0.95;"/><image x="14" y="26" width="22" height="22" href="data:image/svg+xml,%3csvg%20xmlns='http://www.w3.org/2000/svg'%20width='16'%20height='16'%20fill='%2322242a'%20class='bi%20bi-envelope'%20viewBox='0%200%2024%2024'%3e%3cpath%20opacity='0.6'%20fill='none'%20stroke='%2322242a'%20stroke-linecap='round'%20stroke-linejoin='round'%20stroke-width='2'%20d='m2.357%207.714l6.98%204.654c.963.641%201.444.962%201.964%201.087c.46.11.939.11%201.398%200c.52-.125%201.001-.446%201.964-1.087l6.98-4.654M7.157%2019.5h9.686c1.68%200%202.52%200%203.162-.327a3%203%200%200%200%201.31-1.311c.328-.642.328-1.482.328-3.162V9.3c0-1.68%200-2.52-.327-3.162a3%203%200%200%200-1.311-1.311c-.642-.327-1.482-.327-3.162-.327H7.157c-1.68%200-2.52%200-3.162.327a3%203%200%200%200-1.31%201.311c-.328.642-.328%201.482-.328%203.162v5.4c0%201.68%200%202.52.327%203.162a3%203%200%200%200%201.311%201.311c.642.327%201.482.327%203.162.327'%20/%3e%3c/svg%3e" style="fill: white;"/></g><rect class="djs-hit djs-hit-all" x="0" y="0" width="50" height="50" style="fill: none; stroke-opacity: 0; stroke: white; stroke-width: 15px;"/><path d="M1.03845 48.1347C1.03845 49.3511 1.07295 50.758 1.38342 52.064C1.69949 53.3938 2.32428 54.7154 3.56383 55.6428C6.02533 57.4841 10.1161 58.7685 14.8212 59.6067C19.5772 60.4538 25.1388 60.8738 30.6831 60.8738C36.2276 60.8738 41.7891 60.4538 46.545 59.6067C51.2504 58.7687 55.3412 57.4842 57.8028 55.6429C59.0424 54.7156 59.6673 53.3938 59.9834 52.064C60.2938 50.7579 60.3285 49.351 60.3285 48.1344V13.8415C60.3285 12.6249 60.2938 11.218 59.9834 9.91171C59.6673 8.58194 59.0423 7.2602 57.8027 6.33294C55.341 4.49168 51.2503 3.20723 46.545 2.36914C41.7891 1.522 36.2276 1.10204 30.6831 1.10205C25.1388 1.10206 19.5772 1.52206 14.8213 2.36923C10.1162 3.20734 6.02543 4.49183 3.5639 6.33314C2.32433 7.26038 1.69951 8.58206 1.38343 9.91181C1.07295 11.2179 1.03845 12.6247 1.03845 13.8411V48.1347Z" transform="translate(-6, -6)" class="djs-outline" style="stroke-width: 2px; fill: none;"/></g></g><g class="djs-group"><g class="djs-element djs-shape" data-element-id="DataStoreReference_0qyuc3t_label" style="display: block;" transform="matrix(1 0 0 1 270 282)"><g class="djs-visual"><text lineHeight="1.2" class="djs-label" style="font-family: 'IBM Plex Sans', Helvetica, sans-serif; font-size: 11px; font-weight: normal; fill: rgb(34, 36, 42);"><tspan x="0" y="9.899999999999999">BDM Events</tspan></text></g><rect class="djs-hit djs-hit-all" x="0" y="0" width="60" height="14" style="fill: none; stroke-opacity: 0; stroke: white; stroke-width: 15px;"/><rect x="-5" y="-5" rx="4" width="70" height="24" class="djs-outline" style="fill: none;"/></g></g></svg>