<?xml version="1.0" encoding="utf-8"?>
<!-- created with bpmn-js / http://bpmn.io -->
<!DOCTYPE svg PUBLIC "-//W3C//DTD SVG 1.1//EN" "http://www.w3.org/Graphics/SVG/1.1/DTD/svg11.dtd">
<svg xmlns="http://www.w3.org/2000/svg" xmlns:xlink="http://www.w3.org/1999/xlink" width="1030" height="846" viewBox="25 218 1030 846" version="1.1"><defs><pattern id="djs-grid-pattern-700217" width="10" height="10" patternUnits="userSpaceOnUse"><circle cx="0.5" cy="0.5" r="0.5" style="fill: rgb(204, 204, 204);"/></pattern></defs><g class="djs-group"><g class="djs-element djs-shape" data-element-id="StartEvent_1" style="display: block;" transform="matrix(1 0 0 1 412 240)"><g class="djs-visual"><circle cx="18" cy="18" r="18" style="stroke-linecap: round; stroke-linejoin: round; stroke: rgb(34, 36, 42); stroke-width: 2px; fill: white; fill-opacity: 0.95;"/></g><rect class="djs-hit djs-hit-all" x="0" y="0" width="36" height="36" style="fill: none; stroke-opacity: 0; stroke: white; stroke-width: 15px;"/><circle cx="18" cy="18" r="23" class="djs-outline" style="fill: none;"/></g></g><g class="djs-group"><g class="djs-element djs-shape" data-element-id="Activity_1i8p7zp" style="display: block;" transform="matrix(1 0 0 1 380 320)"><g class="djs-visual"><rect x="0" y="0" width="100" height="80" rx="10" ry="10" style="stroke-linecap: round; stroke-linejoin: round; stroke: rgb(34, 36, 42); stroke-width: 2px; fill: white; fill-opacity: 0.95;"/><text lineHeight="1.2" class="djs-label" style="font-family: 'IBM Plex Sans', Helvetica, sans-serif; font-size: 12px; font-weight: normal; fill: rgb(34, 36, 42);"><tspan x="22.34375" y="36.4">Assess for </tspan><tspan x="23.8984375" y="50.8">elegibility</tspan></text></g><rect class="djs-hit djs-hit-all" x="0" y="0" width="100" height="80" style="fill: none; stroke-opacity: 0; stroke: white; stroke-width: 15px;"/><rect x="-5" y="-5" rx="14" width="110" height="90" class="djs-outline" style="fill: none;"/></g></g><g class="djs-group"><g class="djs-element djs-shape" data-element-id="RandomGateway_02vvte4" style="display: block;" transform="matrix(1 0 0 1 405 455)"><g class="djs-visual"><polygon points="25,0 50,25 25,50 0,25" style="stroke-linecap: round; stroke-linejoin: round; stroke-width: 2px; stroke: rgb(34, 36, 42); fill: white;"/><image x="9" y="9" width="52" height="52" href="data:image/svg+xml,%3csvg%20xmlns='http://www.w3.org/2000/svg'%20width='16'%20height='16'%20fill='%2322242a'%20class='sfi-RandomGateway'%20viewBox='0%200%2016%2016'%3e%3cpath%20d='m8.44,1.88l0,1.56c0,0.12%20-0.08,0.24%20-0.19,0.29c-0.04,0.01%20-0.08,0.02%20-0.12,0.02c-0.09,0%20-0.17,-0.03%20-0.23,-0.09l-0.56,-0.56l-1.23,1.24c-0.06,0.05%20-0.15,0.09%20-0.23,0.09c-0.08,0%20-0.16,-0.04%20-0.22,-0.09c-0.05,-0.06%20-0.09,-0.14%20-0.09,-0.22c0,-0.09%200.04,-0.17%200.09,-0.23l1.24,-1.23l-0.56,-0.56c-0.09,-0.1%20-0.11,-0.23%20-0.07,-0.35c0.05,-0.11%200.17,-0.19%200.29,-0.19l1.57,0c0.17,0%200.31,0.14%200.31,0.32zm-0.19,4.39c-0.12,-0.04%20-0.25,-0.02%20-0.35,0.07l-0.56,0.56l-5.24,-5.25c-0.13,-0.1%20-0.31,-0.09%20-0.43,0.02c-0.11,0.12%20-0.12,0.3%20-0.02,0.43l5.25,5.24l-0.56,0.56c-0.09,0.1%20-0.11,0.23%20-0.07,0.35c0.05,0.11%200.17,0.19%200.29,0.19l1.57,0c0.17,0%200.31,-0.14%200.31,-0.31l0,-1.57c0,-0.12%20-0.08,-0.24%20-0.19,-0.29zm-4.36,-0.61l-2.24,2.24c-0.12,0.13%20-0.12,0.32%200,0.45c0.13,0.12%200.32,0.12%200.45,0l2.24,-2.24c0.11,-0.13%200.1,-0.32%20-0.02,-0.43c-0.11,-0.12%20-0.3,-0.13%20-0.43,-0.02zm0,0'/%3e%3c/svg%3e" style="fill: white;"/></g><rect class="djs-hit djs-hit-all" x="0" y="0" width="50" height="50" style="fill: none; stroke-opacity: 0; stroke: white; stroke-width: 15px;"/><rect x="2" y="2" rx="4" width="46" height="46" class="djs-outline" style="transform-box: fill-box; transform: rotate(45deg); transform-origin: center center; fill: none;"/></g></g><g class="djs-group"><g class="djs-element djs-shape" data-element-id="Activity_0ui1cau" style="display: block;" transform="matrix(1 0 0 1 280 700)"><g class="djs-visual"><rect x="0" y="0" width="100" height="80" rx="10" ry="10" style="stroke-linecap: round; stroke-linejoin: round; stroke: rgb(34, 36, 42); stroke-width: 2px; fill: white; fill-opacity: 0.95;"/><text lineHeight="1.2" class="djs-label" style="font-family: 'IBM Plex Sans', Helvetica, sans-serif; font-size: 12px; font-weight: normal; fill: rgb(34, 36, 42);"><tspan x="23.00390625" y="43.599999999999994">Follow-up</tspan></text></g><rect class="djs-hit djs-hit-all" x="0" y="0" width="100" height="80" style="fill: none; stroke-opacity: 0; stroke: white; stroke-width: 15px;"/><rect x="-5" y="-5" rx="14" width="110" height="90" class="djs-outline" style="fill: none;"/></g></g><g class="djs-group"><g class="djs-element djs-shape" data-element-id="Activity_1vk2h8j" style="display: block;" transform="matrix(1 0 0 1 470 700)"><g class="djs-visual"><rect x="0" y="0" width="320" height="80" rx="10" ry="10" style="stroke-linecap: round; stroke-linejoin: round; stroke: rgb(34, 36, 42); stroke-width: 2px; fill: white; fill-opacity: 0.95;"/><text lineHeight="1.2" class="djs-label" style="font-family: 'IBM Plex Sans', Helvetica, sans-serif; font-size: 12px; font-weight: normal; fill: rgb(34, 36, 42);"><tspan x="58.3203125" y="36.4">Lost to follow-up (give reasons) (n=...)</tspan><tspan x="34.80859375" y="50.8">discontinued intervention (give reasons) (n=...)</tspan></text></g><rect class="djs-hit djs-hit-all" x="0" y="0" width="320" height="80" style="fill: none; stroke-opacity: 0; stroke: white; stroke-width: 15px;"/><rect x="-5" y="-5" rx="14" width="330" height="90" class="djs-outline" style="fill: none;"/></g></g><g class="djs-group"><g class="djs-element djs-shape" data-element-id="Activity_0fnr437" style="display: block;" transform="matrix(1 0 0 1 280 830)"><g class="djs-visual"><rect x="0" y="0" width="100" height="80" rx="10" ry="10" style="stroke-linecap: round; stroke-linejoin: round; stroke: rgb(34, 36, 42); stroke-width: 2px; fill: white; fill-opacity: 0.95;"/><text lineHeight="1.2" class="djs-label" style="font-family: 'IBM Plex Sans', Helvetica, sans-serif; font-size: 12px; font-weight: normal; fill: rgb(34, 36, 42);"><tspan x="27.65234375" y="43.599999999999994">Analysis</tspan></text></g><rect class="djs-hit djs-hit-all" x="0" y="0" width="100" height="80" style="fill: none; stroke-opacity: 0; stroke: white; stroke-width: 15px;"/><rect x="-5" y="-5" rx="14" width="110" height="90" class="djs-outline" style="fill: none;"/></g></g><g class="djs-group"><g class="djs-element djs-shape" data-element-id="Activity_17evp61" style="display: block;" transform="matrix(1 0 0 1 470 830)"><g class="djs-visual"><rect x="0" y="0" width="320" height="80" rx="10" ry="10" style="stroke-linecap: round; stroke-linejoin: round; stroke: rgb(34, 36, 42); stroke-width: 2px; fill: white; fill-opacity: 0.95;"/><text lineHeight="1.2" class="djs-label" style="font-family: 'IBM Plex Sans', Helvetica, sans-serif; font-size: 12px; font-weight: normal; fill: rgb(34, 36, 42);"><tspan x="118.13671875" y="36.4">Analyzed (n=...)</tspan><tspan x="41.5703125" y="50.8">Excluded from analysis (give reasons) (n=...)</tspan></text></g><rect class="djs-hit djs-hit-all" x="0" y="0" width="320" height="80" style="fill: none; stroke-opacity: 0; stroke: white; stroke-width: 15px;"/><rect x="-5" y="-5" rx="14" width="330" height="90" class="djs-outline" style="fill: none;"/></g></g><g class="djs-group"><g class="djs-element djs-shape" data-element-id="Activity_1kku0um" style="display: block;" transform="matrix(1 0 0 1 280 570)"><g class="djs-visual"><rect x="0" y="0" width="100" height="80" rx="10" ry="10" style="stroke-linecap: round; stroke-linejoin: round; stroke: rgb(34, 36, 42); stroke-width: 2px; fill: white; fill-opacity: 0.95;"/><text lineHeight="1.2" class="djs-label" style="font-family: 'IBM Plex Sans', Helvetica, sans-serif; font-size: 12px; font-weight: normal; fill: rgb(34, 36, 42);"><tspan x="21.1015625" y="36.4">Allocate to </tspan><tspan x="17.47265625" y="50.8">intervention</tspan></text></g><rect class="djs-hit djs-hit-all" x="0" y="0" width="100" height="80" style="fill: none; stroke-opacity: 0; stroke: white; stroke-width: 15px;"/><rect x="-5" y="-5" rx="14" width="110" height="90" class="djs-outline" style="fill: none;"/></g></g><g class="djs-group"><g class="djs-element djs-shape" data-element-id="Activity_13m9s5e" style="display: block;" transform="matrix(1 0 0 1 470 570)"><g class="djs-visual"><rect x="0" y="0" width="320" height="80" rx="10" ry="10" style="stroke-linecap: round; stroke-linejoin: round; stroke: rgb(34, 36, 42); stroke-width: 2px; fill: white; fill-opacity: 0.95;"/><text lineHeight="1.2" class="djs-label" style="font-family: 'IBM Plex Sans', Helvetica, sans-serif; font-size: 12px; font-weight: normal; fill: rgb(34, 36, 42);"><tspan x="78.06640625" y="22">Allocate to intervention (n=...):</tspan><tspan x="59.50390625" y="36.4">received allocated intervention (n=...)</tspan><tspan x="21.09765625" y="50.8">did not receive allocated intervention (give reasons) </tspan><tspan x="144.07421875" y="65.19999999999999">(n=...)</tspan></text></g><rect class="djs-hit djs-hit-all" x="0" y="0" width="320" height="80" style="fill: none; stroke-opacity: 0; stroke: white; stroke-width: 15px;"/><rect x="-5" y="-5" rx="14" width="330" height="90" class="djs-outline" style="fill: none;"/></g></g><g class="djs-group"><g class="djs-element djs-shape" data-element-id="Event_1f0xc32" style="display: block;" transform="matrix(1 0 0 1 402 1002)"><g class="djs-visual"><circle cx="18" cy="18" r="18" style="stroke-linecap: round; stroke-linejoin: round; stroke: rgb(34, 36, 42); stroke-width: 4px; fill: white; fill-opacity: 0.95;"/></g><rect class="djs-hit djs-hit-all" x="0" y="0" width="36" height="36" style="fill: none; stroke-opacity: 0; stroke: white; stroke-width: 15px;"/><circle cx="18" cy="18" r="24" class="djs-outline" style="fill: none;"/></g></g><g class="djs-group"><g class="djs-element djs-shape" data-element-id="Event_1xzg7ir" style="display: block;" transform="matrix(1 0 0 1 122 692)"><g class="djs-visual"><circle cx="18" cy="18" r="18" style="stroke-linecap: round; stroke-linejoin: round; stroke: rgb(172, 90, 84); stroke-width: 4px; fill: rgb(241, 208, 205); fill-opacity: 0.95;"/><path d="m 7.2,25.991999999999997 0.09350000000000001,-0.025300000000000003 7.3392,-9.610700000000001 7.667000000000001,8.9661 4.7003,-18.2204 -5.8707,11.6501 -7.299600000000001,-9.585400000000002 z" style="fill: rgb(172, 90, 84); stroke-linecap: round; stroke-linejoin: round; stroke: rgb(172, 90, 84); stroke-width: 1px;"/></g><rect class="djs-hit djs-hit-all" x="0" y="0" width="36" height="36" style="fill: none; stroke-opacity: 0; stroke: white; stroke-width: 15px;"/><circle cx="18" cy="18" r="24" class="djs-outline" style="fill: none;"/></g></g><g class="djs-group"><g class="djs-element djs-shape" data-element-id="Event_1perv4i" style="display: block;" transform="matrix(1 0 0 1 122 772)"><g class="djs-visual"><circle cx="18" cy="18" r="18" style="stroke-linecap: round; stroke-linejoin: round; stroke: rgb(172, 90, 84); stroke-width: 4px; fill: rgb(241, 208, 205); fill-opacity: 0.95;"/><path d="m 7.2,25.991999999999997 0.09350000000000001,-0.025300000000000003 7.3392,-9.610700000000001 7.667000000000001,8.9661 4.7003,-18.2204 -5.8707,11.6501 -7.299600000000001,-9.585400000000002 z" style="fill: rgb(172, 90, 84); stroke-linecap: round; stroke-linejoin: round; stroke: rgb(172, 90, 84); stroke-width: 1px;"/></g><rect class="djs-hit djs-hit-all" x="0" y="0" width="36" height="36" style="fill: none; stroke-opacity: 0; stroke: white; stroke-width: 15px;"/><circle cx="18" cy="18" r="24" class="djs-outline" style="fill: none;"/></g></g><g class="djs-group"><g class="djs-element djs-shape" data-element-id="Event_1uomwkd" style="display: block;" transform="matrix(1 0 0 1 122 592)"><g class="djs-visual"><circle cx="18" cy="18" r="18" style="stroke-linecap: round; stroke-linejoin: round; stroke: rgb(172, 90, 84); stroke-width: 4px; fill: rgb(241, 208, 205); fill-opacity: 0.95;"/><path d="m 7.2,25.991999999999997 0.09350000000000001,-0.025300000000000003 7.3392,-9.610700000000001 7.667000000000001,8.9661 4.7003,-18.2204 -5.8707,11.6501 -7.299600000000001,-9.585400000000002 z" style="fill: rgb(172, 90, 84); stroke-linecap: round; stroke-linejoin: round; stroke: rgb(172, 90, 84); stroke-width: 1px;"/></g><rect class="djs-hit djs-hit-all" x="0" y="0" width="36" height="36" style="fill: none; stroke-opacity: 0; stroke: white; stroke-width: 15px;"/><circle cx="18" cy="18" r="24" class="djs-outline" style="fill: none;"/></g></g><g class="djs-group"><g class="djs-element djs-shape" data-element-id="Event_1jaq45z" style="display: block;" transform="matrix(1 0 0 1 122 852)"><g class="djs-visual"><circle cx="18" cy="18" r="18" style="stroke-linecap: round; stroke-linejoin: round; stroke: rgb(172, 90, 84); stroke-width: 4px; fill: rgb(241, 208, 205); fill-opacity: 0.95;"/><path d="m 7.2,25.991999999999997 0.09350000000000001,-0.025300000000000003 7.3392,-9.610700000000001 7.667000000000001,8.9661 4.7003,-18.2204 -5.8707,11.6501 -7.299600000000001,-9.585400000000002 z" style="fill: rgb(172, 90, 84); stroke-linecap: round; stroke-linejoin: round; stroke: rgb(172, 90, 84); stroke-width: 1px;"/></g><rect class="djs-hit djs-hit-all" x="0" y="0" width="36" height="36" style="fill: none; stroke-opacity: 0; stroke: white; stroke-width: 15px;"/><circle cx="18" cy="18" r="24" class="djs-outline" style="fill: none;"/></g></g><g class="djs-group"><g class="djs-element djs-shape" data-element-id="Event_15t1xhi" style="display: block;" transform="matrix(1 0 0 1 562 322)"><g class="djs-visual"><circle cx="18" cy="18" r="18" style="stroke-linecap: round; stroke-linejoin: round; stroke: rgb(172, 90, 84); stroke-width: 4px; fill: rgb(241, 208, 205); fill-opacity: 0.95;"/><path d="m 7.2,25.991999999999997 0.09350000000000001,-0.025300000000000003 7.3392,-9.610700000000001 7.667000000000001,8.9661 4.7003,-18.2204 -5.8707,11.6501 -7.299600000000001,-9.585400000000002 z" style="fill: rgb(172, 90, 84); stroke-linecap: round; stroke-linejoin: round; stroke: rgb(172, 90, 84); stroke-width: 1px;"/></g><rect class="djs-hit djs-hit-all" x="0" y="0" width="36" height="36" style="fill: none; stroke-opacity: 0; stroke: white; stroke-width: 15px;"/><circle cx="18" cy="18" r="24" class="djs-outline" style="fill: none;"/></g></g><g class="djs-group"><g class="djs-element djs-connection" data-element-id="Association_17u599d" style="display: block;"><g class="djs-visual"><path data-corner-radius="5" style="fill: none; stroke-linecap: round; stroke-linejoin: round; stroke: rgb(140, 178, 110); stroke-width: 2px; stroke-dasharray: 0, 5;" d="M709,570L850,499"/></g><path d="M709,570L850,499" class="djs-hit djs-hit-stroke" style="fill: none; stroke-opacity: 0; stroke: white; stroke-width: 15px;"/><rect x="704" y="494" rx="4" width="151" height="81" class="djs-outline" style="fill: none;"/></g></g><g class="djs-group"><g class="djs-element djs-connection" data-element-id="Association_0k57ck2" style="display: block;"><g class="djs-visual"><path data-corner-radius="5" style="fill: none; stroke-linecap: round; stroke-linejoin: round; stroke: rgb(172, 90, 84); stroke-width: 2px; stroke-dasharray: 0, 5;" d="M280,579L130,486"/></g><path d="M280,579L130,486" class="djs-hit djs-hit-stroke" style="fill: none; stroke-opacity: 0; stroke: white; stroke-width: 15px;"/><rect x="125" y="481" rx="4" width="160" height="103" class="djs-outline" style="fill: none;"/></g></g><g class="djs-group"><g class="djs-element djs-connection" data-element-id="Flow_1ijusqh" style="display: block;"><g class="djs-visual"><defs><marker id="marker-c6owodywwtsozuyl1q0lnix24" viewBox="0 0 20 20" refX="11" refY="10" markerWidth="10" markerHeight="10" orient="auto"><path d="M 1 5 L 11 10 L 1 15 Z" style="stroke-linecap: round; stroke-linejoin: round; stroke: rgb(34, 36, 42); stroke-width: 1px; fill: rgb(34, 36, 42);"/></marker></defs><path data-corner-radius="5" style="fill: none; stroke-linecap: round; stroke-linejoin: round; stroke: rgb(34, 36, 42); stroke-width: 2px; marker-end: url('#marker-c6owodywwtsozuyl1q0lnix24');" d="M430,276L430,320"/></g><path d="M430,276L430,320" class="djs-hit djs-hit-stroke" style="fill: none; stroke-opacity: 0; stroke: white; stroke-width: 15px;"/><rect x="425" y="271" rx="4" width="10" height="54" class="djs-outline" style="fill: none;"/></g></g><g class="djs-group"><g class="djs-element djs-connection" data-element-id="Flow_08opnol" style="display: block;"><g class="djs-visual"><defs><marker id="marker-3oxojof8508s7b0y4c5s09zjm" viewBox="0 0 20 20" refX="11" refY="10" markerWidth="10" markerHeight="10" orient="auto"><path d="M 1 5 L 11 10 L 1 15 Z" style="stroke-linecap: round; stroke-linejoin: round; stroke: rgb(34, 36, 42); stroke-width: 1px; fill: rgb(34, 36, 42);"/></marker></defs><path data-corner-radius="5" style="fill: none; stroke-linecap: round; stroke-linejoin: round; stroke: rgb(34, 36, 42); stroke-width: 2px; marker-end: url('#marker-3oxojof8508s7b0y4c5s09zjm');" d="M430,400L430,455"/></g><path d="M430,400L430,455" class="djs-hit djs-hit-stroke" style="fill: none; stroke-opacity: 0; stroke: white; stroke-width: 15px;"/><rect x="425" y="395" rx="4" width="10" height="65" class="djs-outline" style="fill: none;"/></g></g><g class="djs-group"><g class="djs-element djs-connection" data-element-id="Flow_1d4ayr4" style="display: block;"><g class="djs-visual"><defs><marker id="marker-1zjvqmbpb7n047qqh5tuak5ge" viewBox="0 0 20 20" refX="11" refY="10" markerWidth="10" markerHeight="10" orient="auto"><path d="M 1 5 L 11 10 L 1 15 Z" style="stroke-linecap: round; stroke-linejoin: round; stroke: rgb(34, 36, 42); stroke-width: 1px; fill: rgb(34, 36, 42);"/></marker></defs><path data-corner-radius="5" style="fill: none; stroke-linecap: round; stroke-linejoin: round; stroke: rgb(34, 36, 42); stroke-width: 2px; marker-end: url('#marker-1zjvqmbpb7n047qqh5tuak5ge');" d="M405,480L335,480C332.5,480,330,482.5,330,485L330,570"/></g><path d="M405,480L330,480L330,570" class="djs-hit djs-hit-stroke" style="fill: none; stroke-opacity: 0; stroke: white; stroke-width: 15px;"/><rect x="325" y="475" rx="4" width="85" height="100" class="djs-outline" style="fill: none;"/></g></g><g class="djs-group"><g class="djs-element djs-connection" data-element-id="Flow_18h7ilb" style="display: block;"><g class="djs-visual"><defs><marker id="marker-e09qbxocchakoq0cettc4oomd" viewBox="0 0 20 20" refX="11" refY="10" markerWidth="10" markerHeight="10" orient="auto"><path d="M 1 5 L 11 10 L 1 15 Z" style="stroke-linecap: round; stroke-linejoin: round; stroke: rgb(34, 36, 42); stroke-width: 1px; fill: rgb(34, 36, 42);"/></marker></defs><path data-corner-radius="5" style="fill: none; stroke-linecap: round; stroke-linejoin: round; stroke: rgb(34, 36, 42); stroke-width: 2px; marker-end: url('#marker-e09qbxocchakoq0cettc4oomd');" d="M455,480L625,480C627.5,480,630,482.5,630,485L630,570"/></g><path d="M455,480L630,480L630,570" class="djs-hit djs-hit-stroke" style="fill: none; stroke-opacity: 0; stroke: white; stroke-width: 15px;"/><rect x="450" y="475" rx="4" width="185" height="100" class="djs-outline" style="fill: none;"/></g></g><g class="djs-group"><g class="djs-element djs-connection" data-element-id="Flow_1fozhqm" style="display: block;"><g class="djs-visual"><defs><marker id="marker-9h2bq4v65x6xzj44rs9b4ems5" viewBox="0 0 20 20" refX="11" refY="10" markerWidth="10" markerHeight="10" orient="auto"><path d="M 1 5 L 11 10 L 1 15 Z" style="stroke-linecap: round; stroke-linejoin: round; stroke: rgb(34, 36, 42); stroke-width: 1px; fill: rgb(34, 36, 42);"/></marker></defs><path data-corner-radius="5" style="fill: none; stroke-linecap: round; stroke-linejoin: round; stroke: rgb(34, 36, 42); stroke-width: 2px; marker-end: url('#marker-9h2bq4v65x6xzj44rs9b4ems5');" d="M630,650L630,700"/></g><path d="M630,650L630,700" class="djs-hit djs-hit-stroke" style="fill: none; stroke-opacity: 0; stroke: white; stroke-width: 15px;"/><rect x="625" y="645" rx="4" width="10" height="60" class="djs-outline" style="fill: none;"/></g></g><g class="djs-group"><g class="djs-element djs-connection" data-element-id="Flow_0q97c6j" style="display: block;"><g class="djs-visual"><defs><marker id="marker-4i7w1vcvehsq2oribijnx26yv" viewBox="0 0 20 20" refX="11" refY="10" markerWidth="10" markerHeight="10" orient="auto"><path d="M 1 5 L 11 10 L 1 15 Z" style="stroke-linecap: round; stroke-linejoin: round; stroke: rgb(34, 36, 42); stroke-width: 1px; fill: rgb(34, 36, 42);"/></marker></defs><path data-corner-radius="5" style="fill: none; stroke-linecap: round; stroke-linejoin: round; stroke: rgb(34, 36, 42); stroke-width: 2px; marker-end: url('#marker-4i7w1vcvehsq2oribijnx26yv');" d="M330,650L330,700"/></g><path d="M330,650L330,700" class="djs-hit djs-hit-stroke" style="fill: none; stroke-opacity: 0; stroke: white; stroke-width: 15px;"/><rect x="325" y="645" rx="4" width="10" height="60" class="djs-outline" style="fill: none;"/></g></g><g class="djs-group"><g class="djs-element djs-connection" data-element-id="Flow_1gq0d7f" style="display: block;"><g class="djs-visual"><defs><marker id="marker-c8ihb0q8jx0es76l4z1qzkny9" viewBox="0 0 20 20" refX="11" refY="10" markerWidth="10" markerHeight="10" orient="auto"><path d="M 1 5 L 11 10 L 1 15 Z" style="stroke-linecap: round; stroke-linejoin: round; stroke: rgb(34, 36, 42); stroke-width: 1px; fill: rgb(34, 36, 42);"/></marker></defs><path data-corner-radius="5" style="fill: none; stroke-linecap: round; stroke-linejoin: round; stroke: rgb(34, 36, 42); stroke-width: 2px; marker-end: url('#marker-c8ihb0q8jx0es76l4z1qzkny9');" d="M330,780L330,830"/></g><path d="M330,780L330,830" class="djs-hit djs-hit-stroke" style="fill: none; stroke-opacity: 0; stroke: white; stroke-width: 15px;"/><rect x="325" y="775" rx="4" width="10" height="60" class="djs-outline" style="fill: none;"/></g></g><g class="djs-group"><g class="djs-element djs-connection" data-element-id="Flow_1pcgb5h" style="display: block;"><g class="djs-visual"><defs><marker id="marker-abmo428540fdgzlfm8uaqn7ty" viewBox="0 0 20 20" refX="11" refY="10" markerWidth="10" markerHeight="10" orient="auto"><path d="M 1 5 L 11 10 L 1 15 Z" style="stroke-linecap: round; stroke-linejoin: round; stroke: rgb(34, 36, 42); stroke-width: 1px; fill: rgb(34, 36, 42);"/></marker></defs><path data-corner-radius="5" style="fill: none; stroke-linecap: round; stroke-linejoin: round; stroke: rgb(34, 36, 42); stroke-width: 2px; marker-end: url('#marker-abmo428540fdgzlfm8uaqn7ty');" d="M630,780L630,830"/></g><path d="M630,780L630,830" class="djs-hit djs-hit-stroke" style="fill: none; stroke-opacity: 0; stroke: white; stroke-width: 15px;"/><rect x="625" y="775" rx="4" width="10" height="60" class="djs-outline" style="fill: none;"/></g></g><g class="djs-group"><g class="djs-element djs-connection" data-element-id="Flow_0fdim8z" style="display: block;"><g class="djs-visual"><defs><marker id="marker-0licdl8uhvbu49vdr0kqdqh3l" viewBox="0 0 20 20" refX="11" refY="10" markerWidth="10" markerHeight="10" orient="auto"><path d="M 1 5 L 11 10 L 1 15 Z" style="stroke-linecap: round; stroke-linejoin: round; stroke: rgb(172, 90, 84); stroke-width: 1px; fill: rgb(172, 90, 84);"/></marker></defs><path data-corner-radius="5" style="fill: none; stroke-linecap: round; stroke-linejoin: round; stroke: rgb(172, 90, 84); stroke-width: 2px; marker-end: url('#marker-0licdl8uhvbu49vdr0kqdqh3l');" d="M280,610L158,610"/></g><path d="M280,610L158,610" class="djs-hit djs-hit-stroke" style="fill: none; stroke-opacity: 0; stroke: white; stroke-width: 15px;"/><rect x="153" y="605" rx="4" width="132" height="10" class="djs-outline" style="fill: none;"/></g></g><g class="djs-group"><g class="djs-element djs-connection" data-element-id="Flow_1f13ghy" style="display: block;"><g class="djs-visual"><defs><marker id="marker-0dek1mmzin844dztrfpqr8uba" viewBox="0 0 20 20" refX="11" refY="10" markerWidth="10" markerHeight="10" orient="auto"><path d="M 1 5 L 11 10 L 1 15 Z" style="stroke-linecap: round; stroke-linejoin: round; stroke: rgb(172, 90, 84); stroke-width: 1px; fill: rgb(172, 90, 84);"/></marker></defs><path data-corner-radius="5" style="fill: none; stroke-linecap: round; stroke-linejoin: round; stroke: rgb(172, 90, 84); stroke-width: 2px; marker-end: url('#marker-0dek1mmzin844dztrfpqr8uba');" d="M280,770L224,770C221.5,770,219,772.5,219,775L219,785C219,787.5,216.5,790,214,790L158,790"/></g><path d="M280,770L219,770L219,790L158,790" class="djs-hit djs-hit-stroke" style="fill: none; stroke-opacity: 0; stroke: white; stroke-width: 15px;"/><rect x="153" y="765" rx="4" width="132" height="30" class="djs-outline" style="fill: none;"/></g></g><g class="djs-group"><g class="djs-element djs-connection" data-element-id="Flow_0q7dsmb" style="display: block;"><g class="djs-visual"><defs><marker id="marker-ac2zt6todqcauv4tquhpp7dfx" viewBox="0 0 20 20" refX="11" refY="10" markerWidth="10" markerHeight="10" orient="auto"><path d="M 1 5 L 11 10 L 1 15 Z" style="stroke-linecap: round; stroke-linejoin: round; stroke: rgb(34, 36, 42); stroke-width: 1px; fill: rgb(34, 36, 42);"/></marker></defs><path data-corner-radius="5" style="fill: none; stroke-linecap: round; stroke-linejoin: round; stroke: rgb(34, 36, 42); stroke-width: 2px; marker-end: url('#marker-ac2zt6todqcauv4tquhpp7dfx');" d="M330,910L330,965C330,967.5,332.5,970,335,970L415,970C417.5,970,420,972.5,420,975L420,1002"/></g><path d="M330,910L330,970L420,970L420,1002" class="djs-hit djs-hit-stroke" style="fill: none; stroke-opacity: 0; stroke: white; stroke-width: 15px;"/><rect x="325" y="905" rx="4" width="100" height="102" class="djs-outline" style="fill: none;"/></g></g><g class="djs-group"><g class="djs-element djs-connection" data-element-id="Flow_1o4myvd" style="display: block;"><g class="djs-visual"><defs><marker id="marker-00gsjzezfsm49s3bxanu604hh" viewBox="0 0 20 20" refX="11" refY="10" markerWidth="10" markerHeight="10" orient="auto"><path d="M 1 5 L 11 10 L 1 15 Z" style="stroke-linecap: round; stroke-linejoin: round; stroke: rgb(34, 36, 42); stroke-width: 1px; fill: rgb(34, 36, 42);"/></marker></defs><path data-corner-radius="5" style="fill: none; stroke-linecap: round; stroke-linejoin: round; stroke: rgb(34, 36, 42); stroke-width: 2px; marker-end: url('#marker-00gsjzezfsm49s3bxanu604hh');" d="M520,910L520,965C520,967.5,517.5,970,515,970L425,970C422.5,970,420,972.5,420,975L420,1002"/></g><path d="M520,910L520,970L420,970L420,1002" class="djs-hit djs-hit-stroke" style="fill: none; stroke-opacity: 0; stroke: white; stroke-width: 15px;"/><rect x="415" y="905" rx="4" width="110" height="102" class="djs-outline" style="fill: none;"/></g></g><g class="djs-group"><g class="djs-element djs-connection" data-element-id="Flow_1jih38m" style="display: block;"><g class="djs-visual"><defs><marker id="marker-181szzyovk2x7g26g9c32yjqt" viewBox="0 0 20 20" refX="11" refY="10" markerWidth="10" markerHeight="10" orient="auto"><path d="M 1 5 L 11 10 L 1 15 Z" style="stroke-linecap: round; stroke-linejoin: round; stroke: rgb(172, 90, 84); stroke-width: 1px; fill: rgb(172, 90, 84);"/></marker></defs><path data-corner-radius="5" style="fill: none; stroke-linecap: round; stroke-linejoin: round; stroke: rgb(172, 90, 84); stroke-width: 2px; marker-end: url('#marker-181szzyovk2x7g26g9c32yjqt');" d="M280,870L158,870"/></g><path d="M280,870L158,870" class="djs-hit djs-hit-stroke" style="fill: none; stroke-opacity: 0; stroke: white; stroke-width: 15px;"/><rect x="153" y="865" rx="4" width="132" height="10" class="djs-outline" style="fill: none;"/></g></g><g class="djs-group"><g class="djs-element djs-connection" data-element-id="Flow_0md3ovf" style="display: block;"><g class="djs-visual"><defs><marker id="marker-51xm3liobc9ozh7fjhgy1w8f4" viewBox="0 0 20 20" refX="11" refY="10" markerWidth="10" markerHeight="10" orient="auto"><path d="M 1 5 L 11 10 L 1 15 Z" style="stroke-linecap: round; stroke-linejoin: round; stroke: rgb(172, 90, 84); stroke-width: 1px; fill: rgb(172, 90, 84);"/></marker></defs><path data-corner-radius="5" style="fill: none; stroke-linecap: round; stroke-linejoin: round; stroke: rgb(172, 90, 84); stroke-width: 2px; marker-end: url('#marker-51xm3liobc9ozh7fjhgy1w8f4');" d="M280,740L224,740C221.5,740,219,737.5,219,735L219,715C219,712.5,216.5,710,214,710L158,710"/></g><path d="M280,740L219,740L219,710L158,710" class="djs-hit djs-hit-stroke" style="fill: none; stroke-opacity: 0; stroke: white; stroke-width: 15px;"/><rect x="153" y="705" rx="4" width="132" height="40" class="djs-outline" style="fill: none;"/></g></g><g class="djs-group"><g class="djs-element djs-connection" data-element-id="Flow_02th6ve" style="display: block;"><g class="djs-visual"><defs><marker id="marker-di32aozjw4wz4s8gjn2zfdf9s" viewBox="0 0 20 20" refX="11" refY="10" markerWidth="10" markerHeight="10" orient="auto"><path d="M 1 5 L 11 10 L 1 15 Z" style="stroke-linecap: round; stroke-linejoin: round; stroke: rgb(172, 90, 84); stroke-width: 1px; fill: rgb(172, 90, 84);"/></marker></defs><path data-corner-radius="5" style="fill: none; stroke-linecap: round; stroke-linejoin: round; stroke: rgb(172, 90, 84); stroke-width: 2px; marker-end: url('#marker-di32aozjw4wz4s8gjn2zfdf9s');" d="M480,360L516,360C518.5,360,521,357.5,521,355L521,345C521,342.5,523.5,340,526,340L562,340"/></g><path d="M480,360L521,360L521,340L562,340" class="djs-hit djs-hit-stroke" style="fill: none; stroke-opacity: 0; stroke: white; stroke-width: 15px;"/><rect x="475" y="335" rx="4" width="92" height="30" class="djs-outline" style="fill: none;"/></g></g><g class="djs-group"><g class="djs-element djs-shape djs-frame" data-element-id="Group_1nspys6" style="display: block;" transform="matrix(1 0 0 1 240 550)"><g class="djs-visual"><rect x="0" y="0" width="570" height="120" rx="10" ry="10" style="stroke-linecap: round; stroke-linejoin: round; stroke: rgb(34, 36, 42); stroke-width: 1.5px; fill: none; stroke-dasharray: 10, 6, 0, 6; pointer-events: none;"/></g><rect class="djs-hit djs-hit-stroke" x="0" y="0" width="570" height="120" style="fill: none; stroke-opacity: 0; stroke: white; stroke-width: 15px;"/><rect x="-5" y="-5" rx="14" width="580" height="130" class="djs-outline" style="fill: none;"/></g></g><g class="djs-group"><g class="djs-element djs-shape djs-frame" data-element-id="Group_1gbia71" style="display: block;" transform="matrix(1 0 0 1 240 680)"><g class="djs-visual"><rect x="0" y="0" width="570" height="120" rx="10" ry="10" style="stroke-linecap: round; stroke-linejoin: round; stroke: rgb(34, 36, 42); stroke-width: 1.5px; fill: none; stroke-dasharray: 10, 6, 0, 6; pointer-events: none;"/></g><rect class="djs-hit djs-hit-stroke" x="0" y="0" width="570" height="120" style="fill: none; stroke-opacity: 0; stroke: white; stroke-width: 15px;"/><rect x="-5" y="-5" rx="14" width="580" height="130" class="djs-outline" style="fill: none;"/></g></g><g class="djs-group"><g class="djs-element djs-shape djs-frame" data-element-id="Group_0l733h7" style="display: block;" transform="matrix(1 0 0 1 240 808)"><g class="djs-visual"><rect x="0" y="0" width="570" height="122" rx="10" ry="10" style="stroke-linecap: round; stroke-linejoin: round; stroke: rgb(34, 36, 42); stroke-width: 1.5px; fill: none; stroke-dasharray: 10, 6, 0, 6; pointer-events: none;"/></g><rect class="djs-hit djs-hit-stroke" x="0" y="0" width="570" height="122" style="fill: none; stroke-opacity: 0; stroke: white; stroke-width: 15px;"/><rect x="-5" y="-5" rx="14" width="580" height="132" class="djs-outline" style="fill: none;"/></g></g><g class="djs-group"><g class="djs-element djs-shape" data-element-id="Flow_1d4ayr4_label" style="display: block;" transform="matrix(1 0 0 1 349 462)"><g class="djs-visual"><text lineHeight="1.2" class="djs-label" style="font-family: 'IBM Plex Sans', Helvetica, sans-serif; font-size: 11px; font-weight: normal; fill: rgb(34, 36, 42);"><tspan x="0" y="9.899999999999999">group 1</tspan></text></g><rect class="djs-hit djs-hit-all" x="0" y="0" width="38" height="14" style="fill: none; stroke-opacity: 0; stroke: white; stroke-width: 15px;"/><rect x="-5" y="-5" rx="4" width="48" height="24" class="djs-outline" style="fill: none;"/></g></g><g class="djs-group"><g class="djs-element djs-shape" data-element-id="RandomGateway_02vvte4_label" style="display: block;" transform="matrix(1 0 0 1 403 512)"><g class="djs-visual"><text lineHeight="1.2" class="djs-label" style="font-family: 'IBM Plex Sans', Helvetica, sans-serif; font-size: 11px; font-weight: normal; fill: rgb(34, 36, 42);"><tspan x="0" y="9.899999999999999">Randomize</tspan></text></g><rect class="djs-hit djs-hit-all" x="0" y="0" width="55" height="14" style="fill: none; stroke-opacity: 0; stroke: white; stroke-width: 15px;"/><rect x="-5" y="-5" rx="4" width="65" height="24" class="djs-outline" style="fill: none;"/></g></g><g class="djs-group"><g class="djs-element djs-shape" data-element-id="label_12" style="display: block;" transform="matrix(1 0 0 1 100 735)"><g class="djs-visual"><text lineHeight="1.2" class="djs-label" style="font-family: 'IBM Plex Sans', Helvetica, sans-serif; font-size: 11px; font-weight: normal; fill: rgb(172, 90, 84);"><tspan x="0" y="9.899999999999999">lost to follow-up</tspan></text></g><rect class="djs-hit djs-hit-all" x="0" y="0" width="81" height="14" style="fill: none; stroke-opacity: 0; stroke: white; stroke-width: 15px;"/><rect x="-5" y="-5" rx="4" width="91" height="24" class="djs-outline" style="fill: none;"/></g></g><g class="djs-group"><g class="djs-element djs-shape" data-element-id="Event_1perv4i_label" style="display: block;" transform="matrix(1 0 0 1 104 815)"><g class="djs-visual"><text lineHeight="1.2" class="djs-label" style="font-family: 'IBM Plex Sans', Helvetica, sans-serif; font-size: 11px; font-weight: normal; fill: rgb(172, 90, 84);"><tspan x="0" y="9.899999999999999">discontinioued</tspan></text></g><rect class="djs-hit djs-hit-all" x="0" y="0" width="73" height="14" style="fill: none; stroke-opacity: 0; stroke: white; stroke-width: 15px;"/><rect x="-5" y="-5" rx="4" width="83" height="24" class="djs-outline" style="fill: none;"/></g></g><g class="djs-group"><g class="djs-element djs-shape" data-element-id="Flow_1f13ghy_label" style="display: block;" transform="matrix(1 0 0 1 178 772)"><g class="djs-visual"><text lineHeight="1.2" class="djs-label" style="font-family: 'IBM Plex Sans', Helvetica, sans-serif; font-size: 11px; font-weight: normal; fill: rgb(172, 90, 84);"><tspan x="0" y="9.899999999999999">n=...</tspan></text></g><rect class="djs-hit djs-hit-all" x="0" y="0" width="22" height="14" style="fill: none; stroke-opacity: 0; stroke: white; stroke-width: 15px;"/><rect x="-5" y="-5" rx="4" width="32" height="24" class="djs-outline" style="fill: none;"/></g></g><g class="djs-group"><g class="djs-element djs-shape" data-element-id="Event_1uomwkd_label" style="display: block;" transform="matrix(1 0 0 1 104 635)"><g class="djs-visual"><text lineHeight="1.2" class="djs-label" style="font-family: 'IBM Plex Sans', Helvetica, sans-serif; font-size: 11px; font-weight: normal; fill: rgb(172, 90, 84);"><tspan x="0" y="9.899999999999999">did not receive </tspan><tspan x="13.50390625" y="23.099999999999998">allocated </tspan><tspan x="6.4921875" y="36.3">intervention</tspan></text></g><rect class="djs-hit djs-hit-all" x="0" y="0" width="73" height="40" style="fill: none; stroke-opacity: 0; stroke: white; stroke-width: 15px;"/><rect x="-5" y="-5" rx="4" width="83" height="50" class="djs-outline" style="fill: none;"/></g></g><g class="djs-group"><g class="djs-element djs-shape" data-element-id="Flow_0fdim8z_label" style="display: block;" transform="matrix(1 0 0 1 209 592)"><g class="djs-visual"><text lineHeight="1.2" class="djs-label" style="font-family: 'IBM Plex Sans', Helvetica, sans-serif; font-size: 11px; font-weight: normal; fill: rgb(172, 90, 84);"><tspan x="0" y="9.899999999999999">n=...</tspan></text></g><rect class="djs-hit djs-hit-all" x="0" y="0" width="22" height="14" style="fill: none; stroke-opacity: 0; stroke: white; stroke-width: 15px;"/><rect x="-5" y="-5" rx="4" width="32" height="24" class="djs-outline" style="fill: none;"/></g></g><g class="djs-group"><g class="djs-element djs-shape" data-element-id="Flow_1jih38m_label" style="display: block;" transform="matrix(1 0 0 1 208 852)"><g class="djs-visual"><text lineHeight="1.2" class="djs-label" style="font-family: 'IBM Plex Sans', Helvetica, sans-serif; font-size: 11px; font-weight: normal; fill: rgb(172, 90, 84);"><tspan x="0" y="9.899999999999999">n=...</tspan></text></g><rect class="djs-hit djs-hit-all" x="0" y="0" width="22" height="14" style="fill: none; stroke-opacity: 0; stroke: white; stroke-width: 15px;"/><rect x="-5" y="-5" rx="4" width="32" height="24" class="djs-outline" style="fill: none;"/></g></g><g class="djs-group"><g class="djs-element djs-shape" data-element-id="Event_1jaq45z_label" style="display: block;" transform="matrix(1 0 0 1 105 895)"><g class="djs-visual"><text lineHeight="1.2" class="djs-label" style="font-family: 'IBM Plex Sans', Helvetica, sans-serif; font-size: 11px; font-weight: normal; fill: rgb(172, 90, 84);"><tspan x="0" y="9.899999999999999">excluded from </tspan><tspan x="15.5234375" y="23.099999999999998">analysis</tspan></text></g><rect class="djs-hit djs-hit-all" x="0" y="0" width="71" height="27" style="fill: none; stroke-opacity: 0; stroke: white; stroke-width: 15px;"/><rect x="-5" y="-5" rx="4" width="81" height="37" class="djs-outline" style="fill: none;"/></g></g><g class="djs-group"><g class="djs-element djs-shape" data-element-id="Flow_0md3ovf_label" style="display: block;" transform="matrix(1 0 0 1 189 693)"><g class="djs-visual"><text lineHeight="1.2" class="djs-label" style="font-family: 'IBM Plex Sans', Helvetica, sans-serif; font-size: 11px; font-weight: normal; fill: rgb(172, 90, 84);"><tspan x="0" y="9.899999999999999">n=...</tspan></text></g><rect class="djs-hit djs-hit-all" x="0" y="0" width="22" height="14" style="fill: none; stroke-opacity: 0; stroke: white; stroke-width: 15px;"/><rect x="-5" y="-5" rx="4" width="32" height="24" class="djs-outline" style="fill: none;"/></g></g><g class="djs-group"><g class="djs-element djs-shape" data-element-id="Flow_18h7ilb_label" style="display: block;" transform="matrix(1 0 0 1 526 462)"><g class="djs-visual"><text lineHeight="1.2" class="djs-label" style="font-family: 'IBM Plex Sans', Helvetica, sans-serif; font-size: 11px; font-weight: normal; fill: rgb(34, 36, 42);"><tspan x="0" y="9.899999999999999">group2</tspan></text></g><rect class="djs-hit djs-hit-all" x="0" y="0" width="36" height="14" style="fill: none; stroke-opacity: 0; stroke: white; stroke-width: 15px;"/><rect x="-5" y="-5" rx="4" width="46" height="24" class="djs-outline" style="fill: none;"/></g></g><g class="djs-group"><g class="djs-element djs-shape" data-element-id="Group_1nspys6_label" style="display: block;" transform="matrix(1 0 0 1 395 557)"><g class="djs-visual"><text lineHeight="1.2" class="djs-label" style="font-family: 'IBM Plex Sans', Helvetica, sans-serif; font-size: 11px; font-weight: normal; fill: rgb(34, 36, 42);"><tspan x="0" y="9.899999999999999">Allocation</tspan></text></g><rect class="djs-hit djs-hit-all" x="0" y="0" width="50" height="14" style="fill: none; stroke-opacity: 0; stroke: white; stroke-width: 15px;"/><rect x="-5" y="-5" rx="4" width="60" height="24" class="djs-outline" style="fill: none;"/></g></g><g class="djs-group"><g class="djs-element djs-shape" data-element-id="Flow_1gq0d7f_label" style="display: block;" transform="matrix(1 0 0 1 334 802)"><g class="djs-visual"><text lineHeight="1.2" class="djs-label" style="font-family: 'IBM Plex Sans', Helvetica, sans-serif; font-size: 11px; font-weight: normal; fill: rgb(34, 36, 42);"><tspan x="0" y="9.899999999999999">n=...</tspan></text></g><rect class="djs-hit djs-hit-all" x="0" y="0" width="22" height="14" style="fill: none; stroke-opacity: 0; stroke: white; stroke-width: 15px;"/><rect x="-5" y="-5" rx="4" width="32" height="24" class="djs-outline" style="fill: none;"/></g></g><g class="djs-group"><g class="djs-element djs-shape" data-element-id="Group_1gbia71_label" style="display: block;" transform="matrix(1 0 0 1 395 687)"><g class="djs-visual"><text lineHeight="1.2" class="djs-label" style="font-family: 'IBM Plex Sans', Helvetica, sans-serif; font-size: 11px; font-weight: normal; fill: rgb(34, 36, 42);"><tspan x="0" y="9.899999999999999">Follow-up</tspan></text></g><rect class="djs-hit djs-hit-all" x="0" y="0" width="50" height="14" style="fill: none; stroke-opacity: 0; stroke: white; stroke-width: 15px;"/><rect x="-5" y="-5" rx="4" width="60" height="24" class="djs-outline" style="fill: none;"/></g></g><g class="djs-group"><g class="djs-element djs-shape" data-element-id="Group_0l733h7_label" style="display: block;" transform="matrix(1 0 0 1 389 815)"><g class="djs-visual"><text lineHeight="1.2" class="djs-label" style="font-family: 'IBM Plex Sans', Helvetica, sans-serif; font-size: 11px; font-weight: normal; fill: rgb(34, 36, 42);"><tspan x="0" y="9.899999999999999">Analysis</tspan></text></g><rect class="djs-hit djs-hit-all" x="0" y="0" width="41" height="14" style="fill: none; stroke-opacity: 0; stroke: white; stroke-width: 15px;"/><rect x="-5" y="-5" rx="4" width="51" height="24" class="djs-outline" style="fill: none;"/></g></g><g class="djs-group"><g class="djs-element djs-shape" data-element-id="Event_15t1xhi_label" style="display: block;" transform="matrix(1 0 0 1 537 365)"><g class="djs-visual"><text lineHeight="1.2" class="djs-label" style="font-family: 'IBM Plex Sans', Helvetica, sans-serif; font-size: 11px; font-weight: normal; fill: rgb(172, 90, 84);"><tspan x="0" y="9.899999999999999">not met inclusion </tspan><tspan x="9.30859375" y="23.099999999999998">criteria (n=...)</tspan><tspan x="15.15625" y="36.3">declined to </tspan><tspan x="0.05859375" y="49.5">participate (n=...)</tspan><tspan x="8.64453125" y="62.7">other reasons </tspan><tspan x="28.02734375" y="75.9">(n=...)</tspan></text></g><rect class="djs-hit djs-hit-all" x="0" y="0" width="86" height="80" style="fill: none; stroke-opacity: 0; stroke: white; stroke-width: 15px;"/><rect x="-5" y="-5" rx="4" width="96" height="90" class="djs-outline" style="fill: none;"/></g></g><g class="djs-group"><g class="djs-element djs-shape" data-element-id="TextAnnotation_1n8dkjm" style="display: block;" transform="matrix(1 0 0 1 850 459)"><g class="djs-visual"><rect x="0" y="0" width="200" height="46" rx="0" ry="0" style="stroke-linecap: round; stroke-linejoin: round; stroke: none; stroke-width: 2px; fill: none;"/><path d="m 0, 0 m 10,0 l -10,0 l 0,46 l 10,0" style="fill: none; stroke-linecap: round; stroke-linejoin: round; stroke: rgb(140, 178, 110); stroke-width: 2px;"/><text lineHeight="1.2" class="djs-label" style="font-family: 'IBM Plex Sans', Helvetica, sans-serif; font-size: 12px; font-weight: normal; fill: rgb(140, 178, 110);"><tspan x="7" y="17.799999999999997">This path is regular CONSORT </tspan><tspan x="7" y="32.199999999999996">reporting</tspan></text></g><rect class="djs-hit djs-hit-all" x="0" y="0" width="200" height="46" style="fill: none; stroke-opacity: 0; stroke: white; stroke-width: 15px;"/><rect x="-5" y="-5" rx="4" width="210" height="56" class="djs-outline" style="fill: none;"/></g></g><g class="djs-group"><g class="djs-element djs-shape" data-element-id="TextAnnotation_1neh62m" style="display: block;" transform="matrix(1 0 0 1 30 440)"><g class="djs-visual"><rect x="0" y="0" width="99.99156545209178" height="55.330634278002705" rx="0" ry="0" style="stroke-linecap: round; stroke-linejoin: round; stroke: none; stroke-width: 2px; fill: none;"/><path d="m 0, 0 m 10,0 l -10,0 l 0,55.330634278002705 l 10,0" style="fill: none; stroke-linecap: round; stroke-linejoin: round; stroke: rgb(172, 90, 84); stroke-width: 2px;"/><text lineHeight="1.2" class="djs-label" style="font-family: 'IBM Plex Sans', Helvetica, sans-serif; font-size: 12px; font-weight: normal; fill: rgb(172, 90, 84);"><tspan x="7" y="17.799999999999997">This path is </tspan><tspan x="7" y="32.199999999999996">CONORT, but </tspan><tspan x="7" y="46.599999999999994">more visual</tspan></text></g><rect class="djs-hit djs-hit-all" x="0" y="0" width="99.99156545209178" height="55.330634278002705" style="fill: none; stroke-opacity: 0; stroke: white; stroke-width: 15px;"/><rect x="-5" y="-5" rx="4" width="109.99156545209178" height="65.3306342780027" class="djs-outline" style="fill: none;"/></g></g><g class="djs-group"><g class="djs-element djs-shape" data-element-id="Event_1f0xc32_label" style="display: block;" transform="matrix(1 0 0 1 410 1045)"><g class="djs-visual"><text lineHeight="1.2" class="djs-label" style="font-family: 'IBM Plex Sans', Helvetica, sans-serif; font-size: 11px; font-weight: normal; fill: rgb(34, 36, 42);"><tspan x="0" y="9.899999999999999">End</tspan></text></g><rect class="djs-hit djs-hit-all" x="0" y="0" width="20" height="14" style="fill: none; stroke-opacity: 0; stroke: white; stroke-width: 15px;"/><rect x="-5" y="-5" rx="4" width="30" height="24" class="djs-outline" style="fill: none;"/></g></g><g class="djs-group"><g class="djs-element djs-shape" data-element-id="StartEvent_1_label" style="display: block;" transform="matrix(1 0 0 1 417 223)"><g class="djs-visual"><text lineHeight="1.2" class="djs-label" style="font-family: 'IBM Plex Sans', Helvetica, sans-serif; font-size: 11px; font-weight: normal; fill: rgb(34, 36, 42);"><tspan x="0" y="9.899999999999999">Start</tspan></text></g><rect class="djs-hit djs-hit-all" x="0" y="0" width="25" height="14" style="fill: none; stroke-opacity: 0; stroke: white; stroke-width: 15px;"/><rect x="-5" y="-5" rx="4" width="35" height="24" class="djs-outline" style="fill: none;"/></g></g><g class="bts-animation-tokens"/></svg>