<?xml version="1.0" encoding="utf-8"?><!DOCTYPE svg PUBLIC "-//W3C//DTD SVG 1.1//EN" "http://www.w3.org/Graphics/SVG/1.1/DTD/svg11.dtd"><svg xmlns="http://www.w3.org/2000/svg" xmlns:xlink="http://www.w3.org/1999/xlink" width="308" height="148" viewBox="407 155 308 148" version="1.1"><metadata xmlns=""><studyflow><bpmn2:definitions xmlns:xsi="http://www.w3.org/2001/XMLSchema-instance" xmlns:bpmn2="http://www.omg.org/spec/BPMN/20100524/MODEL" xmlns:bpmndi="http://www.omg.org/spec/BPMN/20100524/DI" xmlns:dc="http://www.omg.org/spec/DD/20100524/DC" xmlns:studyflow="http://behaverse.org/schemas/studyflow" xmlns:bioc="http://bpmn.io/schema/bpmn/biocolor/1.0" xmlns:color="http://www.omg.org/spec/BPMN/non-normative/color/1.0" xmlns:di="http://www.omg.org/spec/DD/20100524/DI" id="sample-diagram" targetNamespace="http://bpmn.io/schema/bpmn" xsi:schemaLocation="http://www.omg.org/spec/BPMN/20100524/MODEL BPMN20.xsd"><bpmn2:process id="Study_1" isExecutable="false"><bpmn2:extensionElements><studyflow:study/></bpmn2:extensionElements><bpmn2:task id="Task_06v8ch2" name="task"><bpmn2:incoming>Flow_1ncgr73</bpmn2:incoming></bpmn2:task><bpmn2:boundaryEvent id="Event_0lm1o14" attachedToRef="Task_06v8ch2"><bpmn2:timerEventDefinition id="TimerEventDefinition_059zvbz"/></bpmn2:boundaryEvent><bpmn2:startEvent id="Event_163yw9x"><bpmn2:outgoing>Flow_1ncgr73</bpmn2:outgoing><bpmn2:timerEventDefinition id="TimerEventDefinition_1pisawe"/></bpmn2:startEvent><bpmn2:sequenceFlow id="Flow_1ncgr73" sourceRef="Event_163yw9x" targetRef="Task_06v8ch2"/><bpmn2:textAnnotation id="TextAnnotation_10h6lij"><bpmn2:text>Start Time</bpmn2:text></bpmn2:textAnnotation><bpmn2:association id="Association_18kflm0" associationDirection="None" sourceRef="Event_163yw9x" targetRef="TextAnnotation_10h6lij"/><bpmn2:textAnnotation id="TextAnnotation_1lzh5lv"><bpmn2:text>End Time</bpmn2:text></bpmn2:textAnnotation><bpmn2:association id="Association_1727nvd" associationDirection="None" sourceRef="Event_0lm1o14" targetRef="TextAnnotation_1lzh5lv"/></bpmn2:process><bpmndi:BPMNDiagram id="BPMNDiagram_1"><bpmndi:BPMNPlane id="BPMNPlane_1" bpmnElement="Study_1"><bpmndi:BPMNShape id="Task_06v8ch2_di" bpmnElement="Task_06v8ch2"><dc:Bounds x="490" y="218" width="100" height="80"/><bpmndi:BPMNLabel/></bpmndi:BPMNShape><bpmndi:BPMNShape id="Event_1gpqogm_di" bpmnElement="Event_163yw9x" bioc:stroke="#8cb26e" bioc:fill="#d9e7d6" color:background-color="#d9e7d6" color:border-color="#8cb26e"><dc:Bounds x="412" y="240" width="36" height="36"/></bpmndi:BPMNShape><bpmndi:BPMNEdge id="Association_18kflm0_di" bpmnElement="Association_18kflm0" bioc:stroke="#8cb26e" color:border-color="#8cb26e"><di:waypoint x="442" y="244"/><di:waypoint x="487" y="190"/></bpmndi:BPMNEdge><bpmndi:BPMNEdge id="Association_1727nvd_di" bpmnElement="Association_1727nvd" bioc:stroke="#ac5a54" color:border-color="#ac5a54"><di:waypoint x="601" y="246"/><di:waypoint x="648" y="190"/></bpmndi:BPMNEdge><bpmndi:BPMNShape id="Event_0lm1o14_di" bpmnElement="Event_0lm1o14" bioc:stroke="#ac5a54" bioc:fill="#f1d0cd" color:background-color="#f1d0cd" color:border-color="#ac5a54"><dc:Bounds x="572" y="242" width="36" height="36"/></bpmndi:BPMNShape><bpmndi:BPMNEdge id="Flow_1ncgr73_di" bpmnElement="Flow_1ncgr73"><di:waypoint x="448" y="258"/><di:waypoint x="490" y="258"/></bpmndi:BPMNEdge><bpmndi:BPMNShape id="TextAnnotation_10h6lij_di" bpmnElement="TextAnnotation_10h6lij" bioc:stroke="#8cb26e" bioc:fill="#d9e7d6" color:background-color="#d9e7d6" color:border-color="#8cb26e"><dc:Bounds x="450" y="160" width="100" height="30"/><bpmndi:BPMNLabel/></bpmndi:BPMNShape><bpmndi:BPMNShape id="TextAnnotation_1lzh5lv_di" bpmnElement="TextAnnotation_1lzh5lv" bioc:stroke="#ac5a54" bioc:fill="#f1d0cd" color:background-color="#f1d0cd" color:border-color="#ac5a54"><dc:Bounds x="610" y="160" width="100" height="30"/><bpmndi:BPMNLabel/></bpmndi:BPMNShape></bpmndi:BPMNPlane></bpmndi:BPMNDiagram></bpmn2:definitions></studyflow></metadata><defs><pattern id="djs-grid-pattern-22414" width="10" height="10" patternUnits="userSpaceOnUse"><circle cx="0.5" cy="0.5" r="0.5" style="fill: rgb(204, 204, 204);"/></pattern></defs><g class="djs-group"><g class="djs-element djs-shape" data-element-id="Task_06v8ch2" style="display: block;" transform="matrix(1 0 0 1 490 218)"><g class="djs-visual"><rect x="0" y="0" width="100" height="80" rx="10" ry="10" style="stroke-linecap: round; stroke-linejoin: round; stroke: rgb(34, 36, 42); stroke-width: 2px; fill: white; fill-opacity: 0.95;"/><text lineHeight="1.2" class="djs-label" style="font-family: 'IBM Plex Sans', Helvetica, sans-serif; font-size: 12px; font-weight: normal; fill: rgb(34, 36, 42);"><tspan x="38.60546875" y="43.599999999999994">task</tspan></text></g><rect class="djs-hit djs-hit-all" x="0" y="0" width="100" height="80" style="fill: none; stroke-opacity: 0; stroke: white; stroke-width: 15px;"/><rect x="-5" y="-5" rx="14" width="110" height="90" class="djs-outline" style="fill: none;"/></g></g><g class="djs-group"><g class="djs-element djs-shape" data-element-id="Event_163yw9x" style="display: block;" transform="matrix(1 0 0 1 412 240)"><g class="djs-visual"><circle cx="18" cy="18" r="18" style="stroke-linecap: round; stroke-linejoin: round; stroke: rgb(140, 178, 110); stroke-width: 2px; fill: rgb(217, 231, 214); fill-opacity: 0.95;"/><circle cx="18" cy="18" r="11" style="stroke-linecap: round; stroke-linejoin: round; stroke: rgb(140, 178, 110); stroke-width: 2px; fill: rgb(217, 231, 214);"/><path d="M 18,18 l 2.25,-7.5 m -2.25,7.5 l 5.25,1.5 " style="fill: none; stroke-linecap: round; stroke-linejoin: round; stroke: rgb(140, 178, 110); stroke-width: 2px;"/><path transform="rotate(0,18,18)" d="M 18,18 m 0,7.5 l -0,2.25 " style="fill: none; stroke-linecap: round; stroke-linejoin: round; stroke: rgb(140, 178, 110); stroke-width: 1px;"/><path transform="rotate(30,18,18)" d="M 18,18 m 0,7.5 l -0,2.25 " style="fill: none; stroke-linecap: round; stroke-linejoin: round; stroke: rgb(140, 178, 110); stroke-width: 1px;"/><path transform="rotate(60,18,18)" d="M 18,18 m 0,7.5 l -0,2.25 " style="fill: none; stroke-linecap: round; stroke-linejoin: round; stroke: rgb(140, 178, 110); stroke-width: 1px;"/><path transform="rotate(90,18,18)" d="M 18,18 m 0,7.5 l -0,2.25 " style="fill: none; stroke-linecap: round; stroke-linejoin: round; stroke: rgb(140, 178, 110); stroke-width: 1px;"/><path transform="rotate(120,18,18)" d="M 18,18 m 0,7.5 l -0,2.25 " style="fill: none; stroke-linecap: round; stroke-linejoin: round; stroke: rgb(140, 178, 110); stroke-width: 1px;"/><path transform="rotate(150,18,18)" d="M 18,18 m 0,7.5 l -0,2.25 " style="fill: none; stroke-linecap: round; stroke-linejoin: round; stroke: rgb(140, 178, 110); stroke-width: 1px;"/><path transform="rotate(180,18,18)" d="M 18,18 m 0,7.5 l -0,2.25 " style="fill: none; stroke-linecap: round; stroke-linejoin: round; stroke: rgb(140, 178, 110); stroke-width: 1px;"/><path transform="rotate(210,18,18)" d="M 18,18 m 0,7.5 l -0,2.25 " style="fill: none; stroke-linecap: round; stroke-linejoin: round; stroke: rgb(140, 178, 110); stroke-width: 1px;"/><path transform="rotate(240,18,18)" d="M 18,18 m 0,7.5 l -0,2.25 " style="fill: none; stroke-linecap: round; stroke-linejoin: round; stroke: rgb(140, 178, 110); stroke-width: 1px;"/><path transform="rotate(270,18,18)" d="M 18,18 m 0,7.5 l -0,2.25 " style="fill: none; stroke-linecap: round; stroke-linejoin: round; stroke: rgb(140, 178, 110); stroke-width: 1px;"/><path transform="rotate(300,18,18)" d="M 18,18 m 0,7.5 l -0,2.25 " style="fill: none; stroke-linecap: round; stroke-linejoin: round; stroke: rgb(140, 178, 110); stroke-width: 1px;"/><path transform="rotate(330,18,18)" d="M 18,18 m 0,7.5 l -0,2.25 " style="fill: none; stroke-linecap: round; stroke-linejoin: round; stroke: rgb(140, 178, 110); stroke-width: 1px;"/></g><rect class="djs-hit djs-hit-all" x="0" y="0" width="36" height="36" style="fill: none; stroke-opacity: 0; stroke: white; stroke-width: 15px;"/><circle cx="18" cy="18" r="23" class="djs-outline" style="fill: none;"/></g></g><g class="djs-group"><g class="djs-element djs-connection" data-element-id="Association_18kflm0" style="display: block;"><g class="djs-visual"><path data-corner-radius="5" style="fill: none; stroke-linecap: round; stroke-linejoin: round; stroke: rgb(140, 178, 110); stroke-width: 2px; stroke-dasharray: 0, 5;" d="M442,244L487,190"/></g><path d="M442,244L487,190" class="djs-hit djs-hit-stroke" style="fill: none; stroke-opacity: 0; stroke: white; stroke-width: 15px;"/><rect x="437" y="185" rx="4" width="55" height="64" class="djs-outline" style="fill: none;"/></g></g><g class="djs-group"><g class="djs-element djs-connection" data-element-id="Association_1727nvd" style="display: block;"><g class="djs-visual"><path data-corner-radius="5" style="fill: none; stroke-linecap: round; stroke-linejoin: round; stroke: rgb(172, 90, 84); stroke-width: 2px; stroke-dasharray: 0, 5;" d="M601,246L648,190"/></g><path d="M601,246L648,190" class="djs-hit djs-hit-stroke" style="fill: none; stroke-opacity: 0; stroke: white; stroke-width: 15px;"/><rect x="596" y="185" rx="4" width="57" height="66" class="djs-outline" style="fill: none;"/></g></g><g class="djs-group"><g class="djs-element djs-shape" data-element-id="Event_0lm1o14" style="display: block;" transform="matrix(1 0 0 1 572 242)"><g class="djs-visual"><circle cx="18" cy="18" r="18" style="stroke-linecap: round; stroke-linejoin: round; stroke: rgb(172, 90, 84); stroke-width: 1.5px; fill: rgb(241, 208, 205); fill-opacity: 1;"/><circle cx="18" cy="18" r="15" style="stroke-linecap: round; stroke-linejoin: round; stroke: rgb(172, 90, 84); stroke-width: 1.5px; fill: none; fill-opacity: 1;"/><circle cx="18" cy="18" r="11" style="stroke-linecap: round; stroke-linejoin: round; stroke: rgb(172, 90, 84); stroke-width: 2px; fill: rgb(241, 208, 205);"/><path d="M 18,18 l 2.25,-7.5 m -2.25,7.5 l 5.25,1.5 " style="fill: none; stroke-linecap: round; stroke-linejoin: round; stroke: rgb(172, 90, 84); stroke-width: 2px;"/><path transform="rotate(0,18,18)" d="M 18,18 m 0,7.5 l -0,2.25 " style="fill: none; stroke-linecap: round; stroke-linejoin: round; stroke: rgb(172, 90, 84); stroke-width: 1px;"/><path transform="rotate(30,18,18)" d="M 18,18 m 0,7.5 l -0,2.25 " style="fill: none; stroke-linecap: round; stroke-linejoin: round; stroke: rgb(172, 90, 84); stroke-width: 1px;"/><path transform="rotate(60,18,18)" d="M 18,18 m 0,7.5 l -0,2.25 " style="fill: none; stroke-linecap: round; stroke-linejoin: round; stroke: rgb(172, 90, 84); stroke-width: 1px;"/><path transform="rotate(90,18,18)" d="M 18,18 m 0,7.5 l -0,2.25 " style="fill: none; stroke-linecap: round; stroke-linejoin: round; stroke: rgb(172, 90, 84); stroke-width: 1px;"/><path transform="rotate(120,18,18)" d="M 18,18 m 0,7.5 l -0,2.25 " style="fill: none; stroke-linecap: round; stroke-linejoin: round; stroke: rgb(172, 90, 84); stroke-width: 1px;"/><path transform="rotate(150,18,18)" d="M 18,18 m 0,7.5 l -0,2.25 " style="fill: none; stroke-linecap: round; stroke-linejoin: round; stroke: rgb(172, 90, 84); stroke-width: 1px;"/><path transform="rotate(180,18,18)" d="M 18,18 m 0,7.5 l -0,2.25 " style="fill: none; stroke-linecap: round; stroke-linejoin: round; stroke: rgb(172, 90, 84); stroke-width: 1px;"/><path transform="rotate(210,18,18)" d="M 18,18 m 0,7.5 l -0,2.25 " style="fill: none; stroke-linecap: round; stroke-linejoin: round; stroke: rgb(172, 90, 84); stroke-width: 1px;"/><path transform="rotate(240,18,18)" d="M 18,18 m 0,7.5 l -0,2.25 " style="fill: none; stroke-linecap: round; stroke-linejoin: round; stroke: rgb(172, 90, 84); stroke-width: 1px;"/><path transform="rotate(270,18,18)" d="M 18,18 m 0,7.5 l -0,2.25 " style="fill: none; stroke-linecap: round; stroke-linejoin: round; stroke: rgb(172, 90, 84); stroke-width: 1px;"/><path transform="rotate(300,18,18)" d="M 18,18 m 0,7.5 l -0,2.25 " style="fill: none; stroke-linecap: round; stroke-linejoin: round; stroke: rgb(172, 90, 84); stroke-width: 1px;"/><path transform="rotate(330,18,18)" d="M 18,18 m 0,7.5 l -0,2.25 " style="fill: none; stroke-linecap: round; stroke-linejoin: round; stroke: rgb(172, 90, 84); stroke-width: 1px;"/></g><rect class="djs-hit djs-hit-all" x="0" y="0" width="36" height="36" style="fill: none; stroke-opacity: 0; stroke: white; stroke-width: 15px;"/><circle cx="18" cy="18" r="23" class="djs-outline" style="fill: none;"/></g></g><g class="djs-group"><g class="djs-element djs-connection" data-element-id="Flow_1ncgr73" style="display: block;"><g class="djs-visual"><defs><marker id="marker-962uss5xd1ow3l9onkfswp4v8" viewBox="0 0 20 20" refX="11" refY="10" markerWidth="10" markerHeight="10" orient="auto"><path d="M 1 5 L 11 10 L 1 15 Z" style="stroke-linecap: round; stroke-linejoin: round; stroke: rgb(34, 36, 42); stroke-width: 1px; fill: rgb(34, 36, 42);"/></marker></defs><path data-corner-radius="5" style="fill: none; stroke-linecap: round; stroke-linejoin: round; stroke: rgb(34, 36, 42); stroke-width: 2px; marker-end: url('#marker-962uss5xd1ow3l9onkfswp4v8');" d="M448,258L490,258"/></g><path d="M448,258L490,258" class="djs-hit djs-hit-stroke" style="fill: none; stroke-opacity: 0; stroke: white; stroke-width: 15px;"/><rect x="443" y="253" rx="4" width="52" height="10" class="djs-outline" style="fill: none;"/></g></g><g class="djs-group"><g class="djs-element djs-shape" data-element-id="TextAnnotation_10h6lij" style="display: block;" transform="matrix(1 0 0 1 450 160)"><g class="djs-visual"><rect x="0" y="0" width="100" height="30" rx="0" ry="0" style="stroke-linecap: round; stroke-linejoin: round; stroke: none; stroke-width: 2px; fill: none;"/><path d="m 0, 0 m 10,0 l -10,0 l 0,30 l 10,0" style="fill: none; stroke-linecap: round; stroke-linejoin: round; stroke: rgb(140, 178, 110); stroke-width: 2px;"/><text lineHeight="1.2" class="djs-label" style="font-family: 'IBM Plex Sans', Helvetica, sans-serif; font-size: 12px; font-weight: normal; fill: rgb(140, 178, 110);"><tspan x="7" y="17.799999999999997">Start Time</tspan></text></g><rect class="djs-hit djs-hit-all" x="0" y="0" width="100" height="30" style="fill: none; stroke-opacity: 0; stroke: white; stroke-width: 15px;"/><rect x="-5" y="-5" rx="4" width="110" height="40" class="djs-outline" style="fill: none;"/></g></g><g class="djs-group"><g class="djs-element djs-shape" data-element-id="TextAnnotation_1lzh5lv" style="display: block;" transform="matrix(1 0 0 1 610 160)"><g class="djs-visual"><rect x="0" y="0" width="100" height="30" rx="0" ry="0" style="stroke-linecap: round; stroke-linejoin: round; stroke: none; stroke-width: 2px; fill: none;"/><path d="m 0, 0 m 10,0 l -10,0 l 0,30 l 10,0" style="fill: none; stroke-linecap: round; stroke-linejoin: round; stroke: rgb(172, 90, 84); stroke-width: 2px;"/><text lineHeight="1.2" class="djs-label" style="font-family: 'IBM Plex Sans', Helvetica, sans-serif; font-size: 12px; font-weight: normal; fill: rgb(172, 90, 84);"><tspan x="7" y="17.799999999999997">End Time</tspan></text></g><rect class="djs-hit djs-hit-all" x="0" y="0" width="100" height="30" style="fill: none; stroke-opacity: 0; stroke: white; stroke-width: 15px;"/><rect x="-5" y="-5" rx="4" width="110" height="40" class="djs-outline" style="fill: none;"/></g></g></svg>