<?xml version="1.0" encoding="utf-8"?><!DOCTYPE svg PUBLIC "-//W3C//DTD SVG 1.1//EN" "http://www.w3.org/Graphics/SVG/1.1/DTD/svg11.dtd"><svg xmlns="http://www.w3.org/2000/svg" xmlns:xlink="http://www.w3.org/1999/xlink" width="816" height="100" viewBox="146 170 816 100" version="1.1"><metadata xmlns=""><studyflow><bpmn2:definitions xmlns:xsi="http://www.w3.org/2001/XMLSchema-instance" xmlns:bpmn2="http://www.omg.org/spec/BPMN/20100524/MODEL" xmlns:bpmndi="http://www.omg.org/spec/BPMN/20100524/DI" xmlns:dc="http://www.omg.org/spec/DD/20100524/DC" xmlns:di="http://www.omg.org/spec/DD/20100524/DI" xmlns:studyflow="http://behaverse.org/schemas/studyflow/v1" id="choreography_demo" targetNamespace="http://bpmn.io/schema/bpmn">
  <bpmn2:choreography id="Dyadic_Study" name="Dyadic decision study">
    <bpmn2:extensionElements>
      <studyflow:study/>
    </bpmn2:extensionElements>
    <bpmn2:participant id="Participant_Subject" name="Subject"/>
    <bpmn2:participant id="Participant_Experimenter" name="Experimenter"/>
    <bpmn2:startEvent id="Start" name="Both arrive">
      <bpmn2:outgoing>Flow_Start_Consent</bpmn2:outgoing>
    </bpmn2:startEvent>
    <bpmn2:choreographyTask id="Consent" name="Give consent" initiatingParticipantRef="Participant_Subject">
      <bpmn2:incoming>Flow_Start_Consent</bpmn2:incoming>
      <bpmn2:outgoing>Flow_Consent_Round</bpmn2:outgoing>
      <bpmn2:participantRef>Participant_Subject</bpmn2:participantRef>
      <bpmn2:participantRef>Participant_Experimenter</bpmn2:participantRef>
    </bpmn2:choreographyTask>
    <bpmn2:choreographyTask id="Round" name="First decision round" initiatingParticipantRef="Participant_Experimenter">
      <bpmn2:incoming>Flow_Consent_Round</bpmn2:incoming>
      <bpmn2:outgoing>Flow_Round_Round2</bpmn2:outgoing>
      <bpmn2:participantRef>Participant_Subject</bpmn2:participantRef>
      <bpmn2:participantRef>Participant_Experimenter</bpmn2:participantRef>
    </bpmn2:choreographyTask>
    <bpmn2:choreographyTask id="Round2" name="Second decision round" initiatingParticipantRef="Participant_Subject">
      <bpmn2:incoming>Flow_Round_Round2</bpmn2:incoming>
      <bpmn2:outgoing>Flow_Round2_End</bpmn2:outgoing>
      <bpmn2:participantRef>Participant_Subject</bpmn2:participantRef>
      <bpmn2:participantRef>Participant_Experimenter</bpmn2:participantRef>
    </bpmn2:choreographyTask>
    <bpmn2:endEvent id="End" name="Debrief">
      <bpmn2:incoming>Flow_Round2_End</bpmn2:incoming>
    </bpmn2:endEvent>
    <bpmn2:sequenceFlow id="Flow_Start_Consent" sourceRef="Start" targetRef="Consent"/>
    <bpmn2:sequenceFlow id="Flow_Consent_Round" sourceRef="Consent" targetRef="Round"/>
    <bpmn2:sequenceFlow id="Flow_Round_Round2" sourceRef="Round" targetRef="Round2"/>
    <bpmn2:sequenceFlow id="Flow_Round2_End" sourceRef="Round2" targetRef="End"/>
  </bpmn2:choreography>
  <bpmndi:BPMNDiagram id="BPMNDiagram_1">
    <bpmndi:BPMNPlane id="BPMNPlane_1" bpmnElement="Dyadic_Study">
      <bpmndi:BPMNShape id="Start_di" bpmnElement="Start">
        <dc:Bounds x="160" y="202" width="36" height="36"/>
        <bpmndi:BPMNLabel>
          <dc:Bounds x="150" y="245" width="56" height="14"/>
        </bpmndi:BPMNLabel>
      </bpmndi:BPMNShape>
      <bpmndi:BPMNShape id="Consent_di" bpmnElement="Consent">
        <dc:Bounds x="260" y="175" width="150" height="90"/>
      </bpmndi:BPMNShape>
      <bpmndi:BPMNShape id="Round_di" bpmnElement="Round">
        <dc:Bounds x="480" y="175" width="150" height="90"/>
      </bpmndi:BPMNShape>
      <bpmndi:BPMNShape id="Round2_di" bpmnElement="Round2">
        <dc:Bounds x="700" y="175" width="150" height="90"/>
      </bpmndi:BPMNShape>
      <bpmndi:BPMNShape id="End_di" bpmnElement="End">
        <dc:Bounds x="920" y="202" width="36" height="36"/>
        <bpmndi:BPMNLabel>
          <dc:Bounds x="922" y="245" width="34" height="14"/>
        </bpmndi:BPMNLabel>
      </bpmndi:BPMNShape>
      <bpmndi:BPMNEdge id="Flow_Start_Consent_di" bpmnElement="Flow_Start_Consent">
        <di:waypoint x="196" y="220"/>
        <di:waypoint x="260" y="220"/>
      </bpmndi:BPMNEdge>
      <bpmndi:BPMNEdge id="Flow_Consent_Round_di" bpmnElement="Flow_Consent_Round">
        <di:waypoint x="410" y="220"/>
        <di:waypoint x="480" y="220"/>
      </bpmndi:BPMNEdge>
      <bpmndi:BPMNEdge id="Flow_Round_Round2_di" bpmnElement="Flow_Round_Round2">
        <di:waypoint x="630" y="220"/>
        <di:waypoint x="700" y="220"/>
      </bpmndi:BPMNEdge>
      <bpmndi:BPMNEdge id="Flow_Round2_End_di" bpmnElement="Flow_Round2_End">
        <di:waypoint x="850" y="220"/>
        <di:waypoint x="920" y="220"/>
      </bpmndi:BPMNEdge>
    </bpmndi:BPMNPlane>
  </bpmndi:BPMNDiagram>
</bpmn2:definitions></studyflow></metadata><defs><pattern id="djs-grid-pattern-273488" width="10" height="10" patternUnits="userSpaceOnUse"><circle cx="0.5" cy="0.5" r="0.5" style="fill: rgb(204, 204, 204);"/></pattern></defs><g class="djs-group"><g class="djs-element djs-shape" data-element-id="Start" style="display: block;" transform="matrix(1 0 0 1 160 202)"><g class="djs-visual"><circle cx="18" cy="18" r="18" style="stroke-linecap: round; stroke-linejoin: round; stroke: rgb(34, 36, 42); stroke-width: 2px; fill: white; fill-opacity: 0.95;"/></g><rect class="djs-hit djs-hit-all" x="0" y="0" width="36" height="36" style="fill: none; stroke-opacity: 0; stroke: white; stroke-width: 15px;"/><circle cx="18" cy="18" r="23" class="djs-outline" style="fill: none;"/></g></g><g class="djs-group"><g class="djs-element djs-shape" data-element-id="Start_label" style="display: block;" transform="matrix(1 0 0 1 151 245)"><g class="djs-visual"><text lineHeight="1.2" class="djs-label" style="font-family: 'IBM Plex Sans', Helvetica, sans-serif; font-size: 11px; font-weight: normal; fill: rgb(34, 36, 42);"><tspan x="0" y="9.899999999999999">Both arrive</tspan></text></g><rect class="djs-hit djs-hit-all" x="0" y="0" width="54" height="14" style="fill: none; stroke-opacity: 0; stroke: white; stroke-width: 15px;"/><rect x="-5" y="-5" rx="4" width="64" height="24" class="djs-outline" style="fill: none;"/></g></g><g class="djs-group"><g class="djs-element djs-shape" data-element-id="Consent" style="display: block;" transform="matrix(1 0 0 1 260 175)"><g class="djs-visual"><rect x="0" y="0" rx="10" ry="10" width="150" height="90" style="stroke: rgb(34, 36, 42); fill: white; stroke-width: 2px; stroke-linecap: round; stroke-linejoin: round;"/><path d="M0,20 L0,10 Q0,0 10,0 L140,0 Q150,0 150,10 L150,20 Z" style="fill: white; stroke: none;"/><path d="M0,70 L150,70 L150,80 Q150,90 140,90 L10,90 Q0,90 0,80 Z" style="fill: rgb(237, 237, 237); stroke: none;"/><line x1="0" y1="20" x2="150" y2="20" style="stroke: rgb(34, 36, 42); stroke-width: 1px;"/><line x1="0" y1="70" x2="150" y2="70" style="stroke: rgb(34, 36, 42); stroke-width: 1px;"/><rect x="0" y="0" rx="10" ry="10" width="150" height="90" style="fill: none; stroke: rgb(34, 36, 42); stroke-width: 2px;"/><text x="75" y="10" text-anchor="middle" dominant-baseline="middle" style="fill: rgb(34, 36, 42); font-size: 11px; font-weight: 400; font-family: 'IBM Plex Sans', Helvetica, sans-serif; stroke-width: 0px;">Subject</text><text x="75" y="80" text-anchor="middle" dominant-baseline="middle" style="fill: rgb(34, 36, 42); font-size: 11px; font-weight: 400; font-family: 'IBM Plex Sans', Helvetica, sans-serif; stroke-width: 0px;">Experimenter</text><text x="75" y="45" text-anchor="middle" dominant-baseline="middle" style="fill: rgb(34, 36, 42); font-size: 12px; font-weight: 600; font-family: 'IBM Plex Sans', Helvetica, sans-serif; stroke-width: 0px;">Give consent</text></g><rect class="djs-hit djs-hit-all" x="0" y="0" width="150" height="90" style="fill: none; stroke-opacity: 0; stroke: white; stroke-width: 15px;"/><rect x="-5" y="-5" rx="4" width="160" height="100" class="djs-outline" style="fill: none;"/></g></g><g class="djs-group"><g class="djs-element djs-shape" data-element-id="Round" style="display: block;" transform="matrix(1 0 0 1 480 175)"><g class="djs-visual"><rect x="0" y="0" rx="10" ry="10" width="150" height="90" style="stroke: rgb(34, 36, 42); fill: white; stroke-width: 2px; stroke-linecap: round; stroke-linejoin: round;"/><path d="M0,20 L0,10 Q0,0 10,0 L140,0 Q150,0 150,10 L150,20 Z" style="fill: rgb(237, 237, 237); stroke: none;"/><path d="M0,70 L150,70 L150,80 Q150,90 140,90 L10,90 Q0,90 0,80 Z" style="fill: white; stroke: none;"/><line x1="0" y1="20" x2="150" y2="20" style="stroke: rgb(34, 36, 42); stroke-width: 1px;"/><line x1="0" y1="70" x2="150" y2="70" style="stroke: rgb(34, 36, 42); stroke-width: 1px;"/><rect x="0" y="0" rx="10" ry="10" width="150" height="90" style="fill: none; stroke: rgb(34, 36, 42); stroke-width: 2px;"/><text x="75" y="10" text-anchor="middle" dominant-baseline="middle" style="fill: rgb(34, 36, 42); font-size: 11px; font-weight: 400; font-family: 'IBM Plex Sans', Helvetica, sans-serif; stroke-width: 0px;">Subject</text><text x="75" y="80" text-anchor="middle" dominant-baseline="middle" style="fill: rgb(34, 36, 42); font-size: 11px; font-weight: 400; font-family: 'IBM Plex Sans', Helvetica, sans-serif; stroke-width: 0px;">Experimenter</text><text x="75" y="45" text-anchor="middle" dominant-baseline="middle" style="fill: rgb(34, 36, 42); font-size: 12px; font-weight: 600; font-family: 'IBM Plex Sans', Helvetica, sans-serif; stroke-width: 0px;">First decision round</text></g><rect class="djs-hit djs-hit-all" x="0" y="0" width="150" height="90" style="fill: none; stroke-opacity: 0; stroke: white; stroke-width: 15px;"/><rect x="-5" y="-5" rx="4" width="160" height="100" class="djs-outline" style="fill: none;"/></g></g><g class="djs-group"><g class="djs-element djs-shape" data-element-id="Round2" style="display: block;" transform="matrix(1 0 0 1 700 175)"><g class="djs-visual"><rect x="0" y="0" rx="10" ry="10" width="150" height="90" style="stroke: rgb(34, 36, 42); fill: white; stroke-width: 2px; stroke-linecap: round; stroke-linejoin: round;"/><path d="M0,20 L0,10 Q0,0 10,0 L140,0 Q150,0 150,10 L150,20 Z" style="fill: white; stroke: none;"/><path d="M0,70 L150,70 L150,80 Q150,90 140,90 L10,90 Q0,90 0,80 Z" style="fill: rgb(237, 237, 237); stroke: none;"/><line x1="0" y1="20" x2="150" y2="20" style="stroke: rgb(34, 36, 42); stroke-width: 1px;"/><line x1="0" y1="70" x2="150" y2="70" style="stroke: rgb(34, 36, 42); stroke-width: 1px;"/><rect x="0" y="0" rx="10" ry="10" width="150" height="90" style="fill: none; stroke: rgb(34, 36, 42); stroke-width: 2px;"/><text x="75" y="10" text-anchor="middle" dominant-baseline="middle" style="fill: rgb(34, 36, 42); font-size: 11px; font-weight: 400; font-family: 'IBM Plex Sans', Helvetica, sans-serif; stroke-width: 0px;">Subject</text><text x="75" y="80" text-anchor="middle" dominant-baseline="middle" style="fill: rgb(34, 36, 42); font-size: 11px; font-weight: 400; font-family: 'IBM Plex Sans', Helvetica, sans-serif; stroke-width: 0px;">Experimenter</text><text x="75" y="37.5" text-anchor="middle" dominant-baseline="middle" style="fill: rgb(34, 36, 42); font-size: 12px; font-weight: 600; font-family: 'IBM Plex Sans', Helvetica, sans-serif; stroke-width: 0px;">Second decision</text><text x="75" y="52.5" text-anchor="middle" dominant-baseline="middle" style="fill: rgb(34, 36, 42); font-size: 12px; font-weight: 600; font-family: 'IBM Plex Sans', Helvetica, sans-serif; stroke-width: 0px;">round</text></g><rect class="djs-hit djs-hit-all" x="0" y="0" width="150" height="90" style="fill: none; stroke-opacity: 0; stroke: white; stroke-width: 15px;"/><rect x="-5" y="-5" rx="4" width="160" height="100" class="djs-outline" style="fill: none;"/></g></g><g class="djs-group"><g class="djs-element djs-shape" data-element-id="End" style="display: block;" transform="matrix(1 0 0 1 920 202)"><g class="djs-visual"><circle cx="18" cy="18" r="18" style="stroke-linecap: round; stroke-linejoin: round; stroke: rgb(34, 36, 42); stroke-width: 4px; fill: white; fill-opacity: 0.95;"/></g><rect class="djs-hit djs-hit-all" x="0" y="0" width="36" height="36" style="fill: none; stroke-opacity: 0; stroke: white; stroke-width: 15px;"/><circle cx="18" cy="18" r="24" class="djs-outline" style="fill: none;"/></g></g><g class="djs-group"><g class="djs-element djs-shape" data-element-id="End_label" style="display: block;" transform="matrix(1 0 0 1 921 245)"><g class="djs-visual"><text lineHeight="1.2" class="djs-label" style="font-family: 'IBM Plex Sans', Helvetica, sans-serif; font-size: 11px; font-weight: normal; fill: rgb(34, 36, 42);"><tspan x="0" y="9.899999999999999">Debrief</tspan></text></g><rect class="djs-hit djs-hit-all" x="0" y="0" width="36" height="14" style="fill: none; stroke-opacity: 0; stroke: white; stroke-width: 15px;"/><rect x="-5" y="-5" rx="4" width="46" height="24" class="djs-outline" style="fill: none;"/></g></g><g class="djs-group"><g class="djs-element djs-connection" data-element-id="Flow_Start_Consent" style="display: block;"><g class="djs-visual"><defs><marker id="marker-2ppm9jl6bavbok7uzb8xvwwiu" viewBox="0 0 20 20" refX="11" refY="10" markerWidth="10" markerHeight="10" orient="auto"><path d="M 1 5 L 11 10 L 1 15 Z" style="stroke-linecap: round; stroke-linejoin: round; stroke: rgb(34, 36, 42); stroke-width: 1px; fill: rgb(34, 36, 42);"/></marker></defs><path data-corner-radius="5" style="fill: none; stroke-linecap: round; stroke-linejoin: round; stroke: rgb(34, 36, 42); stroke-width: 2px; marker-end: url('#marker-2ppm9jl6bavbok7uzb8xvwwiu');" d="M196,220L260,220"/></g><path d="M196,220L260,220" class="djs-hit djs-hit-stroke" style="fill: none; stroke-opacity: 0; stroke: white; stroke-width: 15px;"/><rect x="191" y="215" rx="4" width="74" height="10" class="djs-outline" style="fill: none;"/></g></g><g class="djs-group"><g class="djs-element djs-connection" data-element-id="Flow_Consent_Round" style="display: block;"><g class="djs-visual"><defs><marker id="marker-c3fp9a6uixzzlgqfz163uko6j" viewBox="0 0 20 20" refX="11" refY="10" markerWidth="10" markerHeight="10" orient="auto"><path d="M 1 5 L 11 10 L 1 15 Z" style="stroke-linecap: round; stroke-linejoin: round; stroke: rgb(34, 36, 42); stroke-width: 1px; fill: rgb(34, 36, 42);"/></marker></defs><path data-corner-radius="5" style="fill: none; stroke-linecap: round; stroke-linejoin: round; stroke: rgb(34, 36, 42); stroke-width: 2px; marker-end: url('#marker-c3fp9a6uixzzlgqfz163uko6j');" d="M410,220L480,220"/></g><path d="M410,220L480,220" class="djs-hit djs-hit-stroke" style="fill: none; stroke-opacity: 0; stroke: white; stroke-width: 15px;"/><rect x="405" y="215" rx="4" width="80" height="10" class="djs-outline" style="fill: none;"/></g></g><g class="djs-group"><g class="djs-element djs-connection" data-element-id="Flow_Round_Round2" style="display: block;"><g class="djs-visual"><defs><marker id="marker-esi1m54tz8v39fe526mbuo6uf" viewBox="0 0 20 20" refX="11" refY="10" markerWidth="10" markerHeight="10" orient="auto"><path d="M 1 5 L 11 10 L 1 15 Z" style="stroke-linecap: round; stroke-linejoin: round; stroke: rgb(34, 36, 42); stroke-width: 1px; fill: rgb(34, 36, 42);"/></marker></defs><path data-corner-radius="5" style="fill: none; stroke-linecap: round; stroke-linejoin: round; stroke: rgb(34, 36, 42); stroke-width: 2px; marker-end: url('#marker-esi1m54tz8v39fe526mbuo6uf');" d="M630,220L700,220"/></g><path d="M630,220L700,220" class="djs-hit djs-hit-stroke" style="fill: none; stroke-opacity: 0; stroke: white; stroke-width: 15px;"/><rect x="625" y="215" rx="4" width="80" height="10" class="djs-outline" style="fill: none;"/></g></g><g class="djs-group"><g class="djs-element djs-connection" data-element-id="Flow_Round2_End" style="display: block;"><g class="djs-visual"><defs><marker id="marker-7mc3zsrtxuwrwfhbpqsy8bwnj" viewBox="0 0 20 20" refX="11" refY="10" markerWidth="10" markerHeight="10" orient="auto"><path d="M 1 5 L 11 10 L 1 15 Z" style="stroke-linecap: round; stroke-linejoin: round; stroke: rgb(34, 36, 42); stroke-width: 1px; fill: rgb(34, 36, 42);"/></marker></defs><path data-corner-radius="5" style="fill: none; stroke-linecap: round; stroke-linejoin: round; stroke: rgb(34, 36, 42); stroke-width: 2px; marker-end: url('#marker-7mc3zsrtxuwrwfhbpqsy8bwnj');" d="M850,220L920,220"/></g><path d="M850,220L920,220" class="djs-hit djs-hit-stroke" style="fill: none; stroke-opacity: 0; stroke: white; stroke-width: 15px;"/><rect x="845" y="215" rx="4" width="80" height="10" class="djs-outline" style="fill: none;"/></g></g></svg>